<?xml version="1.0" encoding="UTF-8"?>
<svg version="1.1" xmlns="http://www.w3.org/2000/svg" width="500" height="500">
<path d="M0 0 C11.0721944 10.0176997 18.3304489 22.689369 19.21875 37.6953125 C19.73705113 53.94063033 15.21969444 67.22538194 5 80 C4.34 80 3.68 80 3 80 C3 80.66 3 81.32 3 82 C2.34 82 1.68 82 1 82 C1 82.66 1 83.32 1 84 C-0.32 84.33 -1.64 84.66 -3 85 C-3 85.66 -3 86.32 -3 87 C-6 89 -6 89 -9 89 C-9 89.66 -9 90.32 -9 91 C-10.32916561 91.63381508 -11.66364609 92.25648484 -13 92.875 C-13.7425 93.22304687 -14.485 93.57109375 -15.25 93.9296875 C-28.09887996 98.93052998 -44.18717875 98.98639125 -57.11328125 94.2890625 C-61.91208646 92.14615896 -66.49714588 89.70712673 -71 87 C-71 86.34 -71 85.68 -71 85 C-71.61875 84.690625 -72.2375 84.38125 -72.875 84.0625 C-74.25 83.375 -75.625 82.6875 -77 82 C-77 81.34 -77 80.68 -77 80 C-77.66 80 -78.32 80 -79 80 C-80.56864541 78.09521628 -81.98177215 76.2158925 -83.375 74.1875 C-83.77912109 73.5994458 -84.18324219 73.0113916 -84.59960938 72.40551758 C-89.55767083 64.95134941 -92.62468885 56.99114983 -93 48 C-93.03996094 47.07316406 -93.07992187 46.14632812 -93.12109375 45.19140625 C-93.36244314 34.04674317 -91.34692206 23.87124074 -86 14 C-85.34 14 -84.68 14 -84 14 C-83.90460938 13.42378906 -83.80921875 12.84757812 -83.7109375 12.25390625 C-82.84427225 9.50629168 -81.56180529 8.05817921 -79.625 5.9375 C-79.01914063 5.26589844 -78.41328125 4.59429687 -77.7890625 3.90234375 C-77.19867188 3.27457031 -76.60828125 2.64679688 -76 2 C-75.47148438 1.42378906 -74.94296875 0.84757813 -74.3984375 0.25390625 C-73 -1 -73 -1 -71 -1 C-71 -1.66 -71 -2.32 -71 -3 C-47.74212512 -15.40804739 -21.28920207 -18.6546102 0 0 Z M-47 2 C-47.33 2.99 -47.66 3.98 -48 5 C-48.66 5 -49.32 5 -50 5 C-51.62244906 9.73579726 -52.66895653 13.59297081 -50.5625 18.3125 C-47.54370333 23.41497788 -43.54571892 25.22069829 -37.9375 26.9375 C-34.07101268 27.01976569 -32.22346119 26.1261127 -29 24 C-25.61113061 20.57469116 -23.12682954 17.64878401 -22.75 12.75 C-23.02897326 8.56540103 -23.62488665 6.44774519 -26 3 C-32.89148941 -2.46446382 -39.7607369 -3.32146309 -47 2 Z M-77 31 C-77 31.66 -77 32.32 -77 33 C-77.66 33 -78.32 33 -79 33 C-81.79469796 37.81183883 -81.85746764 42.57957956 -81 48 C-79.19107088 51.75086774 -76.78112198 54.03662585 -73.13671875 56.0078125 C-69.12419866 57.4069678 -66.20048757 57.05447396 -62.25 55.5625 C-57.58712552 53.16260951 -55.89854154 50.87017179 -54 46 C-53.14108621 39.98760345 -54.66042511 36.82383039 -58 32 C-63.71273823 26.09027079 -70.35113457 28.08383095 -77 31 Z M-16.8125 32.4375 C-19.29461557 35.70344154 -20.2781342 38.39240753 -20.25 42.5 C-20.25515625 43.2528125 -20.2603125 44.005625 -20.265625 44.78125 C-19.97250404 47.2296721 -19.21816769 48.87304054 -18 51 C-17.34 51 -16.68 51 -16 51 C-16 51.66 -16 52.32 -16 53 C-12.3155205 55.18629871 -8.91782732 57.17656188 -4.5390625 56.7734375 C0.35228498 55.29465803 3.2563176 53.4584839 6 49 C7.22485812 46.55028376 7.16722808 44.85765539 7.1875 42.125 C7.20876953 40.82949219 7.20876953 40.82949219 7.23046875 39.5078125 C6.98859252 36.8758712 6.32983541 35.26019456 5 33 C4.34 33 3.68 33 3 33 C3 32.34 3 31.68 3 31 C1.73160474 30.49384702 0.46016898 29.99530901 -0.8125 29.5 C-1.52019531 29.2215625 -2.22789062 28.943125 -2.95703125 28.65625 C-8.03559349 27.0248954 -12.77844741 29.23807898 -16.8125 32.4375 Z M-42 39 C-42.33333333 42 -42.33333333 42 -42 45 C-40.10244856 47.34973818 -40.10244856 47.34973818 -36.875 47.125 C-35.92625 47.08375 -34.9775 47.0425 -34 47 C-34 46.34 -34 45.68 -34 45 C-33.34 45 -32.68 45 -32 45 C-31.70392303 41.39011935 -31.70392303 41.39011935 -33.1875 38.1875 C-36.55872455 35.97876668 -39.19294559 36.19294559 -42 39 Z M-43.125 59.8125 C-43.82882813 60.14894531 -44.53265625 60.48539062 -45.2578125 60.83203125 C-47.32722628 61.96184559 -47.32722628 61.96184559 -48 65 C-48.66 65 -49.32 65 -50 65 C-51.6028212 68.50617137 -52.47029201 71.14360554 -52 75 C-49.93807651 80.31759216 -47.10865774 83.44567113 -42 86 C-40.37834248 86.12148305 -38.75115673 86.17543652 -37.125 86.1875 C-36.26132813 86.20167969 -35.39765625 86.21585938 -34.5078125 86.23046875 C-31.8758712 85.98859252 -30.26019456 85.32983541 -28 84 C-28 83.34 -28 82.68 -28 82 C-27.34 82 -26.68 82 -26 82 C-23.06590798 76.36654332 -22.67187209 73.23198483 -24 67 C-24.93786348 64.61259459 -24.93786348 64.61259459 -26 63 C-26.66 63 -27.32 63 -28 63 C-28 62.34 -28 61.68 -28 61 C-29.26839526 60.49384702 -30.53983102 59.99530901 -31.8125 59.5 C-32.52019531 59.2215625 -33.22789062 58.943125 -33.95703125 58.65625 C-37.61294635 57.48188339 -39.81172353 58.18031399 -43.125 59.8125 Z " fill="#C9A155" transform="translate(192,137)"/>
<path d="M0 0 C0.93134766 0.00902344 1.86269531 0.01804688 2.82226562 0.02734375 C5.1109436 0.05081737 7.39908672 0.08365271 9.6875 0.125 C10.52569158 1.74749941 11.3579116 3.37308497 12.1875 5 C12.6515625 5.90492188 13.115625 6.80984375 13.59375 7.7421875 C14.6875 10.125 14.6875 10.125 14.6875 12.125 C13.66595825 12.16258423 13.66595825 12.16258423 12.6237793 12.20092773 C9.54066245 12.31690952 6.45784954 12.43962616 3.375 12.5625 C2.30314453 12.60181641 1.23128906 12.64113281 0.12695312 12.68164062 C-1.41508789 12.74448242 -1.41508789 12.74448242 -2.98828125 12.80859375 C-3.93614502 12.84525146 -4.88400879 12.88190918 -5.8605957 12.91967773 C-8.448671 13.03930187 -8.448671 13.03930187 -11.3125 14.125 C-12.79180988 18.56292963 -12.69817292 22.97073671 -12.875 27.625 C-12.9167334 28.70201172 -12.9584668 29.77902344 -13.00146484 30.88867188 C-13.34156774 40.80024191 -13.42174317 50.70835175 -13.4375 60.625 C-13.4400882 61.37966553 -13.44267639 62.13433105 -13.44534302 62.91186523 C-13.46646251 70.71015914 -13.41057972 78.38615248 -12.3125 86.125 C-9.55591128 87.04386291 -7.88588819 87.25896624 -5.04145813 87.28321838 C-4.17067627 87.2930072 -3.29989441 87.30279602 -2.40272522 87.31288147 C-0.97421486 87.32151466 -0.97421486 87.32151466 0.4831543 87.33032227 C1.48821014 87.34022186 2.49326599 87.35012146 3.52877808 87.36032104 C6.85640087 87.39195078 10.18403794 87.41669939 13.51171875 87.44140625 C15.81672032 87.4619745 18.12171811 87.48297093 20.42671204 87.50437927 C26.49790384 87.55961326 32.56912976 87.60901673 38.64038086 87.65722656 C44.83385255 87.70743186 51.02727462 87.763123 57.22070312 87.81835938 C69.3762597 87.9259572 81.53185934 88.02739861 93.6875 88.125 C93.74172947 89.5620809 93.78039723 90.99975462 93.8125 92.4375 C93.83570313 93.23800781 93.85890625 94.03851563 93.8828125 94.86328125 C93.6875 97.125 93.6875 97.125 91.6875 100.125 C89.82113361 100.50531673 89.82113361 100.50531673 87.50788879 100.51268005 C86.63176941 100.52258469 85.75565002 100.53248932 84.85298157 100.54269409 C83.88934189 100.53819244 82.92570221 100.5336908 81.93286133 100.52905273 C80.91968842 100.53591599 79.9065155 100.54277924 78.86264038 100.54985046 C75.49812983 100.56821797 72.13408141 100.56426522 68.76953125 100.55859375 C66.43503161 100.56315229 64.10053331 100.56845687 61.76603699 100.57447815 C56.86407027 100.58342994 51.96226626 100.58096437 47.06030273 100.57104492 C40.78322066 100.55958002 34.50670319 100.57971865 28.22969532 100.60896206 C23.40405208 100.62732989 18.5785438 100.62702991 13.75287437 100.62132454 C11.43925881 100.62117125 9.12563414 100.62722179 6.81205177 100.63961601 C3.57071494 100.65452647 0.33041614 100.64384582 -2.91088867 100.62670898 C-4.34116646 100.64121094 -4.34116646 100.64121094 -5.80033875 100.65600586 C-11.81905776 100.58951779 -15.34201296 99.55849517 -20.3125 96.125 C-20.3125 95.465 -20.3125 94.805 -20.3125 94.125 C-20.9725 94.125 -21.6325 94.125 -22.3125 94.125 C-26.63671547 85.79780309 -26.90422523 78.03778091 -26.84375 68.80859375 C-26.84645159 67.34228764 -26.85033953 65.87598328 -26.85534668 64.40968323 C-26.86120866 61.35278077 -26.85278565 58.2963492 -26.83398438 55.23950195 C-26.81117565 51.34368959 -26.8243499 47.44897869 -26.84827423 43.55320644 C-26.86280522 40.53062302 -26.85809348 37.50829604 -26.84776306 34.48570442 C-26.84511691 33.05014982 -26.84829022 31.61457105 -26.85768127 30.17904472 C-26.90280698 21.34668573 -26.9002276 13.02352334 -20.56262207 6.25657654 C-14.16501008 0.30835919 -8.45039455 -0.15527227 0 0 Z " fill="#C59B52" transform="translate(87.3125,200.875)"/>
<path d="M0 0 C4.62 0 9.24 0 14 0 C14.38671875 1.05058594 14.7734375 2.10117188 15.171875 3.18359375 C17.90424378 10.56362519 20.68369981 17.85719959 24 25 C27.7114992 16.68624178 31.35556261 8.3433047 35 0 C39.29 0 43.58 0 48 0 C48 17.16 48 34.32 48 52 C44.37 52 40.74 52 37 52 C36.67 43.09 36.34 34.18 36 25 C35.030625 27.248125 34.06125 29.49625 33.0625 31.8125 C32.75836182 32.51608643 32.45422363 33.21967285 32.14086914 33.94458008 C30.99517913 36.60994578 29.91789785 39.24630645 29 42 C26.03 42 23.06 42 20 42 C17.69 36.72 15.38 31.44 13 26 C12.67 34.58 12.34 43.16 12 52 C8.04 52 4.08 52 0 52 C0 34.84 0 17.68 0 0 Z " fill="#BF9953" transform="translate(360,211)"/>
<path d="M0 0 C4.80950334 4.15366198 6.78918894 7.32588833 7.29052734 13.68530273 C7.31705789 15.1012321 7.33156566 16.5174226 7.3359375 17.93359375 C7.3425943 18.68915054 7.3492511 19.44470734 7.35610962 20.22315979 C7.36620153 21.81582212 7.37092771 23.40852644 7.37060547 25.0012207 C7.37498044 27.42665744 7.41133785 29.85027516 7.44921875 32.27539062 C7.45508751 33.82811882 7.45905651 35.3808556 7.4609375 36.93359375 C7.47530853 37.65252304 7.48967957 38.37145233 7.50448608 39.11216736 C7.44835524 45.35293438 5.00476568 48.67188502 1.0625 53.25 C-4.18599746 57.70327057 -9.95539167 57.42580632 -16.546875 57.30859375 C-22.04273825 56.8174476 -25.7563905 55.37890254 -29.5546875 51.3515625 C-35.2246536 44.01584365 -34.2148466 35.58570325 -34.25 26.6875 C-34.270625 25.39392578 -34.29125 24.10035156 -34.3125 22.76757812 C-34.34107245 15.78518474 -34.04663711 10.32578074 -31 4 C-30.34 4 -29.68 4 -29 4 C-28.814375 3.401875 -28.62875 2.80375 -28.4375 2.1875 C-22.8061653 -6.38192237 -7.5730437 -4.4941315 0 0 Z M-20 11 C-23.23246245 15.84869367 -22.36883833 21.17545827 -22.375 26.875 C-22.39949219 28.05964844 -22.42398437 29.24429688 -22.44921875 30.46484375 C-22.45308594 31.60824219 -22.45695312 32.75164062 -22.4609375 33.9296875 C-22.46915527 34.97366699 -22.47737305 36.01764648 -22.48583984 37.09326172 C-21.87937389 40.72169573 -20.54622025 42.39337994 -18 45 C-14.93234417 45.86952921 -12.11322443 45.62951229 -9 45 C-5.96784325 42.80168636 -5.18345602 41.55036806 -4 38 C-3.77076192 34.54563256 -3.81483864 31.08619183 -3.8125 27.625 C-3.79413086 26.20574219 -3.79413086 26.20574219 -3.77539062 24.7578125 C-3.76368978 19.20381246 -3.92533478 14.9045313 -7.25 10.25 C-11.86849615 6.95107418 -15.7192633 7.67053813 -20 11 Z " fill="#BD9751" transform="translate(348,279)"/>
<path d="M0 0 C0 0.66 0 1.32 0 2 C0.66 2 1.32 2 2 2 C3.81242323 6.0188515 5.33501617 9.61110675 6 14 C1.98446468 15.33851177 -1.80624225 15.73449995 -6 15 C-7.6875 12.5625 -7.6875 12.5625 -9 10 C-11.95361173 8.92424122 -11.95361173 8.92424122 -15 9 C-18.19997155 10.6408946 -18.19997155 10.6408946 -18.5625 13.375 C-18.23535946 16.19192922 -18.23535946 16.19192922 -15.75 17.9375 C-13.58875006 19.22187049 -11.37924984 20.29403955 -9.10546875 21.37109375 C-2.25946777 24.62104489 2.5186232 27.03724641 6 34 C6.48787315 39.79049444 6.7761285 45.15669481 4.5 50.5625 C-1.72807168 56.63486989 -7.26202273 57.43992709 -15.8515625 57.3359375 C-19.14169223 56.98488147 -21.90995203 56.15992792 -25 55 C-25 54.34 -25 53.68 -25 53 C-25.8971875 52.7215625 -25.8971875 52.7215625 -26.8125 52.4375 C-30.12447286 50.26106069 -30.76852628 47.69442115 -32 44 C-32 42.02 -32 40.04 -32 38 C-28.04 38 -24.08 38 -20 38 C-20 39.65 -20 41.3 -20 43 C-19.34 43 -18.68 43 -18 43 C-18 43.66 -18 44.32 -18 45 C-16.741875 45.04125 -15.48375 45.0825 -14.1875 45.125 C-13.12595703 45.15980469 -13.12595703 45.15980469 -12.04296875 45.1953125 C-9.68640281 45.13254462 -9.68640281 45.13254462 -7 43 C-6.26656572 39.93443402 -6.26656572 39.93443402 -6 37 C-6.66 37 -7.32 37 -8 37 C-8 36.34 -8 35.68 -8 35 C-8.99 34.7525 -9.98 34.505 -11 34.25 C-15.28095196 33.04187859 -19.09059215 31.09178706 -23 29 C-23 28.34 -23 27.68 -23 27 C-23.598125 26.9175 -24.19625 26.835 -24.8125 26.75 C-27.66931115 25.77052189 -28.46221001 24.56298332 -30 22 C-31.75055385 16.17697713 -31.89680855 10.31027809 -29.4375 4.6875 C-23.3689768 -5.76036983 -9.58214877 -5.4984324 0 0 Z " fill="#BB964F" transform="translate(252,279)"/>
<path d="M0 0 C3.63 0 7.26 0 11 0 C12.42055367 2.64380821 13.83648601 5.2899307 15.25 7.9375 C15.64574219 8.67291016 16.04148437 9.40832031 16.44921875 10.16601562 C16.84238281 10.90400391 17.23554688 11.64199219 17.640625 12.40234375 C17.99672852 13.06741943 18.35283203 13.73249512 18.71972656 14.41772461 C20.60446539 18.21918963 22.2767388 22.12266231 24 26 C24.33 17.42 24.66 8.84 25 0 C28.63 0 32.26 0 36 0 C36 17.16 36 34.32 36 52 C32.7 52 29.4 52 26 52 C24.06074205 48.45929322 22.12390879 44.91726567 20.1875 41.375 C19.64029297 40.37597656 19.09308594 39.37695312 18.52929688 38.34765625 C17.99755859 37.37441406 17.46582031 36.40117187 16.91796875 35.3984375 C16.43094482 34.50817871 15.9439209 33.61791992 15.44213867 32.70068359 C13.90826858 29.82821517 12.45628516 26.91257032 11 24 C10.67 33.24 10.34 42.48 10 52 C6.7 52 3.4 52 0 52 C0 34.84 0 17.68 0 0 Z " fill="#C59F58" transform="translate(283,211)"/>
<path d="M0 0 C4.02069425 -0.08765069 8.0411401 -0.14061018 12.0625 -0.1875 C13.7630957 -0.22520508 13.7630957 -0.22520508 15.49804688 -0.26367188 C22.51249484 -0.32502273 28.15867931 -0.22981 33.7421875 4.46484375 C38.8817855 11.14632115 38.59901746 17.7734936 38 26 C37.25985613 28.65074781 36.34898882 30.5830617 35 33 C34.34 33 33.68 33 33 33 C33 33.66 33 34.32 33 35 C25.83491656 39.05297649 20.18180115 39.37617477 12 39 C12 45.6 12 52.2 12 59 C3.50390625 59.09765625 3.50390625 59.09765625 1 59 C0 58 0 58 -0.12025452 55.67784119 C-0.11803391 54.64969803 -0.11581329 53.62155487 -0.11352539 52.56225586 C-0.11344986 51.40112778 -0.11337433 50.23999969 -0.11329651 49.04368591 C-0.10813522 47.780168 -0.10297394 46.51665009 -0.09765625 45.21484375 C-0.0962413 43.92888809 -0.09482635 42.64293243 -0.09336853 41.31800842 C-0.08954418 37.89356557 -0.07971462 34.46916491 -0.06866455 31.04473877 C-0.05844864 27.55261811 -0.05387053 24.06049066 -0.04882812 20.56835938 C-0.03809227 13.71222222 -0.02101684 6.85611313 0 0 Z M12 11 C12 16.61 12 22.22 12 28 C18.5592079 28.53123314 18.5592079 28.53123314 24.625 26.625 C26.76252473 22.54427097 26.31009455 18.51359846 26 14 C25.34 14 24.68 14 24 14 C24 13.34 24 12.68 24 12 C21.47524538 10.73762269 19.68799534 10.90143596 16.875 10.9375 C15.26625 10.958125 13.6575 10.97875 12 11 Z " fill="#B7924E" transform="translate(365,277)"/>
<path d="M0 0 C5.2124657 1.91494548 9.00691727 5.33079095 12 10 C13.41857082 13.54642704 13.07258962 17.22533963 13 21 C9.37 21 5.74 21 2 21 C1.2265625 19.0509375 1.2265625 19.0509375 0.4375 17.0625 C-0.5883608 14.84367429 -0.5883608 14.84367429 -2 13 C-5.9420422 11.80330862 -9.10059807 11.59621531 -13 13 C-14.9641471 18.75941141 -15.33512266 23.93712738 -15.3125 30 C-15.32861328 30.86367188 -15.34472656 31.72734375 -15.36132812 32.6171875 C-15.36552841 38.14476765 -14.78246985 42.1723507 -12 47 C-8.54219493 48.06877611 -6.26258221 48.31564555 -2.75 47.4375 C-0.24746037 45.38184244 0.72509999 42.93227003 2 40 C5.63 40 9.26 40 13 40 C12.39072848 51.27152318 12.39072848 51.27152318 8 56 C2.38944883 60.52235863 -3.66878213 60.44134879 -10.6328125 60.43359375 C-15.5296858 59.8030219 -19.89609145 57.96610537 -23 54 C-23 53.34 -23 52.68 -23 52 C-23.66 52 -24.32 52 -25 52 C-27.03885498 47.78856962 -27.32116321 43.95445156 -27.3359375 39.35546875 C-27.3425943 38.62685135 -27.3492511 37.89823395 -27.35610962 37.14753723 C-27.36620182 35.61034658 -27.3709277 34.07311242 -27.37060547 32.53588867 C-27.37496759 30.20481688 -27.41128857 27.87565783 -27.44921875 25.54492188 C-27.55864143 11.36916569 -27.55864143 11.36916569 -23 5 C-20.71971095 3.27794005 -18.62506758 2.21530907 -16 1 C-11.3165083 -1.34174585 -5.07990768 -0.4957366 0 0 Z " fill="#B7934F" transform="translate(293,276)"/>
<path d="M0 0 C10.23 0 20.46 0 31 0 C31 3.63 31 7.26 31 11 C24.73 11 18.46 11 12 11 C12 15.29 12 19.58 12 24 C17.28 24 22.56 24 28 24 C28 27.63 28 31.26 28 35 C22.72 35 17.44 35 12 35 C12 38.96 12 42.92 12 47 C18.6 47 25.2 47 32 47 C32.09765625 55.49609375 32.09765625 55.49609375 32 58 C31 59 31 59 28.04077148 59.11352539 C26.74727783 59.10828857 25.45378418 59.10305176 24.12109375 59.09765625 C22.86482178 59.09515869 21.6085498 59.09266113 20.31420898 59.09008789 C18.70489502 59.08098389 17.09558105 59.07187988 15.4375 59.0625 C10.343125 59.041875 5.24875 59.02125 0 59 C0 39.53 0 20.06 0 0 Z " fill="#BD9751" transform="translate(411,277)"/>
<path d="M0 0 C0.99 0 1.98 0 3 0 C4.21983748 2.43967497 4.12051527 3.99904524 4.11352539 6.72509766 C4.11344986 7.70596344 4.11337433 8.68682922 4.11329651 9.69741821 C4.10813522 10.75891083 4.10297394 11.82040344 4.09765625 12.9140625 C4.0962413 13.99883881 4.09482635 15.08361511 4.09336853 16.20126343 C4.08775802 19.67587 4.07520372 23.15041281 4.0625 26.625 C4.05748635 28.97656157 4.05292321 31.32812415 4.04882812 33.6796875 C4.03778518 39.45314686 4.02103679 45.22656888 4 51 C0.28008374 51.84481002 -1.51042225 52.18883434 -4.890625 50.3046875 C-5.59638672 49.92070801 -6.30214844 49.53672852 -7.02929688 49.14111328 C-7.76212891 48.7232959 -8.49496094 48.30547852 -9.25 47.875 C-10.38018555 47.25020752 -10.38018555 47.25020752 -11.53320312 46.61279297 C-13.02197617 45.7884443 -14.50776067 44.95867097 -15.99023438 44.12304688 C-19.13226771 42.36729452 -22.33703752 40.7288459 -25.53125 39.0703125 C-27 38 -27 38 -28 35 C-29.29044038 18.67803522 -29.29044038 18.67803522 -25.5234375 12.62890625 C-23.09359726 10.97304987 -20.7590653 10.03464949 -18 9 C-16.54631312 8.3234607 -15.09884382 7.63347522 -13.65625 6.93359375 C-10.62060686 5.46180552 -7.57258253 4.02971469 -4.5 2.63671875 C-1.24184143 1.35550702 -1.24184143 1.35550702 0 0 Z " fill="#C9A156" transform="translate(204,231)"/>
<path d="M0 0 C1.08152344 -0.02578125 2.16304688 -0.0515625 3.27734375 -0.078125 C4.19644531 0.03015625 5.11554688 0.1384375 6.0625 0.25 C8.29734195 3.60226292 9.14420897 6.78571149 10.12109375 10.62890625 C10.31091324 11.3556102 10.50073273 12.08231415 10.69630432 12.83103943 C11.30288569 15.15684126 11.90180548 17.48452835 12.5 19.8125 C13.28772165 22.85615913 14.0790357 25.89887319 14.87109375 28.94140625 C15.15489395 30.03891708 15.15489395 30.03891708 15.44442749 31.15859985 C16.67504642 35.88429209 18.02377069 40.55232997 19.56665039 45.18725586 C20.0625 47.25 20.0625 47.25 20.0625 52.25 C16.4325 52.25 12.8025 52.25 9.0625 52.25 C7.74623308 48.63026598 7.0625 46.15432869 7.0625 42.25 C2.4425 42.25 -2.1775 42.25 -6.9375 42.25 C-7.081875 43.52875 -7.22625 44.8075 -7.375 46.125 C-7.64392746 48.50692894 -7.85976346 50.09452691 -8.9375 52.25 C-12.8975 52.25 -16.8575 52.25 -20.9375 52.25 C-20.27777945 49.83102464 -19.61799085 47.41206782 -18.95800781 44.99316406 C-18.19608435 42.19847255 -17.43510469 39.40353154 -16.67480469 36.60839844 C-15.4752436 32.19979604 -14.2716964 27.79229321 -13.06640625 23.38525391 C-12.55900286 21.52751337 -12.05284058 19.66943345 -11.54785156 17.81103516 C-10.81368999 15.11013317 -10.075265 12.41042928 -9.3359375 9.7109375 C-9.10989838 8.87565521 -8.88385925 8.04037292 -8.65097046 7.17977905 C-6.70259146 0.09563745 -6.70259146 0.09563745 0 0 Z M0.0625 18.25 C-2.12744248 21.53491373 -2.29027339 23.08095639 -2.5625 26.9375 C-2.63726562 27.93136719 -2.71203125 28.92523438 -2.7890625 29.94921875 C-2.83804687 30.70847656 -2.88703125 31.46773437 -2.9375 32.25 C-0.6275 32.25 1.6825 32.25 4.0625 32.25 C3.0725 27.63 2.0825 23.01 1.0625 18.25 C0.7325 18.25 0.4025 18.25 0.0625 18.25 Z " fill="#C69D52" transform="translate(432.9375,210.75)"/>
<path d="M0 0 C0 0.66 0 1.32 0 2 C0.66 2 1.32 2 2 2 C2.67934107 3.22220737 3.34291523 4.45318451 4 5.6875 C4.37125 6.37199219 4.7425 7.05648437 5.125 7.76171875 C6.1232653 10.31531704 6.15233386 12.28179271 6 15 C4.37581255 15.08090971 2.75048255 15.13914995 1.125 15.1875 C0.22007812 15.22230469 -0.68484375 15.25710937 -1.6171875 15.29296875 C-2.79667969 15.14794922 -2.79667969 15.14794922 -4 15 C-6 12 -6 12 -6 9 C-9.3 9 -12.6 9 -16 9 C-19.14826131 14.17511028 -19.43278959 18.19717946 -19.3125 24.0625 C-19.31572266 24.85205078 -19.31894531 25.64160156 -19.32226562 26.45507812 C-19.28320308 30.69158866 -19.09531596 34.20177707 -17 38 C-14.2540274 39.3729863 -12.0410953 39.12412634 -9 39 C-7.515 38.505 -7.515 38.505 -6 38 C-5.67 36.35 -5.34 34.7 -5 33 C-1.37 33 2.26 33 6 33 C5.01679031 40.04633612 3.56909078 44.31690093 -2 49 C-7.38824248 51.51451316 -12.90618853 52.10665107 -18.51171875 50.1015625 C-20.71149063 49.12772314 -22.86465081 48.1072181 -25 47 C-25 46.34 -25 45.68 -25 45 C-25.66 45 -26.32 45 -27 45 C-30.37205272 37.80093507 -30.45179102 31.30857955 -30.375 23.4375 C-30.38660156 22.24447266 -30.39820313 21.05144531 -30.41015625 19.82226562 C-30.38639329 12.69733921 -30.2920279 6.91531852 -25.53515625 1.2578125 C-17.72269274 -4.75177482 -8.56120361 -4.46671493 0 0 Z " fill="#C9A258" transform="translate(252,213)"/>
<path d="M0 0 C8.58 0 17.16 0 26 0 C26 3.3 26 6.6 26 10 C21.05 10 16.1 10 11 10 C11 13.3 11 16.6 11 20 C15.29 20 19.58 20 24 20 C24 23.3 24 26.6 24 30 C19.71 30 15.42 30 11 30 C11 33.63 11 37.26 11 41 C16.28 41 21.56 41 27 41 C27 44.63 27 48.26 27 52 C18.09 52 9.18 52 0 52 C0 34.84 0 17.68 0 0 Z " fill="#B99450" transform="translate(327,211)"/>
<path d="M0 0 C3.63 0 7.26 0 11 0 C11 17.16 11 34.32 11 52 C7.7 52 4.4 52 1 52 C-0.4954643 49.34139679 -1.97114217 46.67460108 -3.4375 44 C-4.06881836 42.88431641 -4.06881836 42.88431641 -4.71289062 41.74609375 C-7.44153442 36.72538916 -8.64305077 32.71118765 -9 27 C-6.69 26.34 -4.38 25.68 -2 25 C-1.67 25.33 -1.34 25.66 -1 26 C-0.67 17.42 -0.34 8.84 0 0 Z " fill="#BB9650" transform="translate(308,211)"/>
<path d="M0 0 C3.63 0 7.26 0 11 0 C11 17.16 11 34.32 11 52 C7.37 52 3.74 52 0 52 C0 34.84 0 17.68 0 0 Z " fill="#C39E57" transform="translate(264,211)"/>
<path d="M0 0 C0 0.66 0 1.32 0 2 C0.66 2 1.32 2 2 2 C3.81242323 6.0188515 5.33501617 9.61110675 6 14 C1.98446468 15.33851177 -1.80624225 15.73449995 -6 15 C-7.6875 12.5625 -7.6875 12.5625 -9 10 C-11.95361173 8.92424122 -11.95361173 8.92424122 -15 9 C-15.99 9.66 -16.98 10.32 -18 11 C-18.27028374 14.71640139 -18.180933 17.457201 -17 21 C-17 21.99 -17 22.98 -17 24 C-18.98 24.99 -18.98 24.99 -21 26 C-22.0625 23.625 -22.0625 23.625 -23 21 C-22.67 20.34 -22.34 19.68 -22 19 C-23.65 19 -25.3 19 -27 19 C-27 19.66 -27 20.32 -27 21 C-27.99 20.67 -28.98 20.34 -30 20 C-32.02965397 15.94069206 -31.59521232 11.04738694 -30.3515625 6.76953125 C-28.57331424 2.71907688 -26.43350171 -0.37329092 -22.32421875 -2.37890625 C-14.5829087 -4.44759247 -6.93225879 -3.97787148 0 0 Z " fill="#BF9850" transform="translate(252,279)"/>
<path d="M0 0 C3.39430394 3.39430394 5 8.2304993 5 13 C5.66 12.67 6.32 12.34 7 12 C7.08159574 16.16138263 6.98248524 19.9472484 6 24 C9.96 23.505 9.96 23.505 14 23 C14 23.66 14 24.32 14 25 C11.03 25 8.06 25 5 25 C4.67 22.36 4.34 19.72 4 17 C3.01 18.98 2.02 20.96 1 23 C-0.32 23 -1.64 23 -3 23 C-3.66 25.31 -4.32 27.62 -5 30 C-3.68 29.34 -2.36 28.68 -1 28 C-0.67 29.65 -0.34 31.3 0 33 C5.28 33 10.56 33 16 33 C16 32.34 16 31.68 16 31 C17.32 31 18.64 31 20 31 C20.04898438 30.31292969 20.09796875 29.62585938 20.1484375 28.91796875 C20.22320312 28.01691406 20.29796875 27.11585938 20.375 26.1875 C20.44460938 25.29417969 20.51421875 24.40085938 20.5859375 23.48046875 C21 21 21 21 23 18 C24.01094544 21.39267194 25.00680051 24.78959455 26 28.1875 C26.42925781 29.62706055 26.42925781 29.62706055 26.8671875 31.09570312 C27.13789063 32.02705078 27.40859375 32.95839844 27.6875 33.91796875 C27.93886719 34.77156982 28.19023437 35.6251709 28.44921875 36.50463867 C29 39 29 39 29 44 C25.37 44 21.74 44 18 44 C16.68373308 40.38026598 16 37.90432869 16 34 C11.38 34 6.76 34 2 34 C1.855625 35.27875 1.71125 36.5575 1.5625 37.875 C1.29357254 40.25692894 1.07773654 41.84452691 0 44 C-3.96 44 -7.92 44 -12 44 C-8 29.33333333 -4 14.66666667 0 0 Z " fill="#B39352" transform="translate(424,219)"/>
<path d="M0 0 C3.96 0 7.92 0 12 0 C14 6.75 14 6.75 14 9 C13.071875 9.8971875 13.071875 9.8971875 12.125 10.8125 C9.878516 13.12505706 9.0093366 14.97199019 8 18 C8.66 18 9.32 18 10 18 C10 28.56 10 39.12 10 50 C6.7 50 3.4 50 0 50 C0 33.5 0 17 0 0 Z " fill="#D0A95E" transform="translate(361,212)"/>
<path d="M0 0 C0.66 0.33 1.32 0.66 2 1 C2.02898097 5.10415189 2.0467922 9.20827753 2.0625 13.3125 C2.07087891 14.47974609 2.07925781 15.64699219 2.08789062 16.84960938 C2.09111328 17.96787109 2.09433594 19.08613281 2.09765625 20.23828125 C2.10289307 21.26993408 2.10812988 22.30158691 2.11352539 23.36450195 C2 26 2 26 1 29 C1.66 29 2.32 29 3 29 C3.69710731 30.28650706 4.38242876 31.57940665 5.0625 32.875 C5.44535156 33.59429687 5.82820313 34.31359375 6.22265625 35.0546875 C6.47917969 35.69664062 6.73570312 36.33859375 7 37 C6.67 37.66 6.34 38.32 6 39 C5.01 38.34 4.02 37.68 3 37 C3.66 38.32 4.32 39.64 5 41 C4.01 41.495 4.01 41.495 3 42 C2.01 41.67 1.02 41.34 0 41 C0 41.66 0 42.32 0 43 C-1.32 42.67 -2.64 42.34 -4 42 C-4 41.34 -4 40.68 -4 40 C-4.66 40 -5.32 40 -6 40 C-7.15927528 36.52217417 -7.11313066 33.81196743 -7.09765625 30.14453125 C-7.0962413 29.48289474 -7.09482635 28.82125824 -7.09336853 28.13957214 C-7.08777996 26.03050172 -7.07522965 23.92153823 -7.0625 21.8125 C-7.05748352 20.38086091 -7.05292087 18.94922015 -7.04882812 17.51757812 C-7.0378143 14.01168412 -7.02055755 10.5058525 -7 7 C-6.34 7 -5.68 7 -5 7 C-4.9175 6.401875 -4.835 5.80375 -4.75 5.1875 C-3.79544128 2.4033704 -2.42867729 1.56688858 0 0 Z " fill="#C69D54" transform="translate(274,288)"/>
<path d="M0 0 C3.96 0 7.92 0 12 0 C12 1.65 12 3.3 12 5 C12.66 5 13.32 5 14 5 C14 5.66 14 6.32 14 7 C15.8871875 7.061875 15.8871875 7.061875 17.8125 7.125 C18.52019531 7.14820313 19.22789062 7.17140625 19.95703125 7.1953125 C22.31359719 7.13254462 22.31359719 7.13254462 25 5 C25.99 5 26.98 5 28 5 C28 4.34 28 3.68 28 3 C28.66 3 29.32 3 30 3 C30.103125 3.61875 30.20625 4.2375 30.3125 4.875 C30.87525373 7.36526484 30.87525373 7.36526484 34 9 C33.67 10.65 33.34 12.3 33 14 C32.01 14 31.02 14 30 14 C30 14.66 30 15.32 30 16 C28.72125 15.95875 27.4425 15.9175 26.125 15.875 C21.64243032 15.85375559 17.60308949 16.59054317 13.26171875 17.66015625 C10.84598133 18.0231427 9.30255495 17.75346764 7 17 C7 16.34 7 15.68 7 15 C6.401875 14.814375 5.80375 14.62875 5.1875 14.4375 C1.87552714 12.26106069 1.23147372 9.69442115 0 6 C0 4.02 0 2.04 0 0 Z " fill="#B19053" transform="translate(220,317)"/>
<path d="M0 0 C0 0.66 0 1.32 0 2 C0.66 2 1.32 2 2 2 C2.67934107 3.22220737 3.34291523 4.45318451 4 5.6875 C4.37125 6.37199219 4.7425 7.05648437 5.125 7.76171875 C6.1232653 10.31531704 6.15233386 12.28179271 6 15 C4.37581255 15.08090971 2.75048255 15.13914995 1.125 15.1875 C0.22007812 15.22230469 -0.68484375 15.25710937 -1.6171875 15.29296875 C-2.79667969 15.14794922 -2.79667969 15.14794922 -4 15 C-6 12 -6 12 -6 9 C-9.3 9 -12.6 9 -16 9 C-16.99 10.98 -17.98 12.96 -19 15 C-19.33 13.68 -19.66 12.36 -20 11 C-20.66 11 -21.32 11 -22 11 C-22.33 9.68 -22.66 8.36 -23 7 C-21.68 6.67 -20.36 6.34 -19 6 C-19.66 5.67 -20.32 5.34 -21 5 C-21 4.01 -21 3.02 -21 2 C-22.65 2.33 -24.3 2.66 -26 3 C-18.71120183 -4.89619801 -9.32734704 -4.86644193 0 0 Z " fill="#B29151" transform="translate(252,213)"/>
<path d="M0 0 C3.80802445 1.4960096 5.69424557 3.66063151 8 7 C9.18694765 10.46835351 9.16660856 13.85653203 9.1875 17.5 C9.20167969 18.6240625 9.21585937 19.748125 9.23046875 20.90625 C9.00970218 23.86976056 8.5460647 25.5067415 7 28 C5.68 28 4.36 28 3 28 C2.67 28.99 2.34 29.98 2 31 C-0.69707634 24.44995746 -2.53699151 19.11513755 -2 12 C-2.99 12 -3.98 12 -5 12 C-5 11.34 -5 10.68 -5 10 C-8.96 9.67 -12.92 9.34 -17 9 C-17 14.94 -17 20.88 -17 27 C-17.66 27 -18.32 27 -19 27 C-19.08728882 23.75017 -19.14048658 20.5006425 -19.1875 17.25 C-19.21263672 16.32960938 -19.23777344 15.40921875 -19.26367188 14.4609375 C-19.27333984 13.57148438 -19.28300781 12.68203125 -19.29296875 11.765625 C-19.3086792 10.94868164 -19.32438965 10.13173828 -19.34057617 9.29003906 C-18.92379459 6.48759373 -17.83804852 5.11152979 -16 3 C-15.34 3.66 -14.68 4.32 -14 5 C-11.33050591 5.24315656 -11.33050591 5.24315656 -8.375 5.125 C-7.37210937 5.10695313 -6.36921875 5.08890625 -5.3359375 5.0703125 C-4.17964844 5.03550781 -4.17964844 5.03550781 -3 5 C-2.67 6.65 -2.34 8.3 -2 10 C-1.34 8.35 -0.68 6.7 0 5 C0.66 5 1.32 5 2 5 C1.34 3.35 0.68 1.7 0 0 Z " fill="#C09B53" transform="translate(394,279)"/>
<path d="M0 0 C0 0.99 0 1.98 0 3 C0.99 3.33 1.98 3.66 3 4 C1.02 4.99 1.02 4.99 -1 6 C-1 6.99 -1 7.98 -1 9 C-0.01 8.67 0.98 8.34 2 8 C1.84660156 8.64324219 1.69320312 9.28648437 1.53515625 9.94921875 C0.84253326 13.89767537 0.64199119 17.8131887 0.4375 21.8125 C0.39431641 22.60076172 0.35113281 23.38902344 0.30664062 24.20117188 C0.20121679 26.13394215 0.10016906 28.06695026 0 30 C-3.16609462 31.87620422 -5.35832401 32.09662822 -9 32 C-9.08770383 28.14597871 -9.14062735 24.29221709 -9.1875 20.4375 C-9.21263672 19.35146484 -9.23777344 18.26542969 -9.26367188 17.14648438 C-9.31979042 10.99215078 -9.12635362 6.37672409 -6 1 C-3.76419496 -0.01627502 -2.42194077 0 0 0 Z " fill="#D1A85C" transform="translate(231,215)"/>
<path d="M0 0 C0.33 0 0.66 0 1 0 C1 3.3 1 6.6 1 10 C3.97 10 6.94 10 10 10 C9.67 8.35 9.34 6.7 9 5 C9.680625 5.7425 9.680625 5.7425 10.375 6.5 C11.87635519 8.22609337 11.87635519 8.22609337 14 8 C13.34 6.02 12.68 4.04 12 2 C13.65 1.34 15.3 0.68 17 0 C18.49697302 5.68849748 17.3348044 10.41809068 16 16 C14.68 16 13.36 16 12 16 C12 16.66 12 17.32 12 18 C6.72 18 1.44 18 -4 18 C-4.66 16.68 -5.32 15.36 -6 14 C-7.98 14.99 -7.98 14.99 -10 16 C-9.01 13.03 -8.02 10.06 -7 7 C-5.68 7.33 -4.36 7.66 -3 8 C-2.690625 7.05125 -2.38125 6.1025 -2.0625 5.125 C-1 2 -1 2 0 0 Z " fill="#CCA255" transform="translate(428,234)"/>
<path d="M0 0 C7.59 0.33 15.18 0.66 23 1 C23 2.98 23 4.96 23 7 C16.565 7.495 16.565 7.495 10 8 C9.67 11.96 9.34 15.92 9 20 C8.67 20 8.34 20 8 20 C7.34 16.37 6.68 12.74 6 9 C4.68 9 3.36 9 2 9 C1.67 22.2 1.34 35.4 1 49 C8.59 49 16.18 49 24 49 C24 46.69 24 44.38 24 42 C19.38 42 14.76 42 10 42 C10 41.67 10 41.34 10 41 C14.95 41 19.9 41 25 41 C25 43.97 25 46.94 25 50 C16.75 50 8.5 50 0 50 C0 33.5 0 17 0 0 Z " fill="#D0AC61" transform="translate(328,212)"/>
<path d="M0 0 C33.99 0 67.98 0 103 0 C103 9 103 9 101 12 C99.11408043 12.36914349 99.11408043 12.36914349 96.77328491 12.36076355 C95.88704941 12.36488754 95.0008139 12.36901154 94.08772278 12.3732605 C93.11308578 12.36247467 92.13844879 12.35168884 91.13427734 12.34057617 C90.10986038 12.34101425 89.08544342 12.34145233 88.02998352 12.34190369 C84.63177669 12.33980766 81.23405852 12.31643798 77.8359375 12.29296875 C75.48467275 12.2873757 73.1334045 12.28310423 70.78213501 12.28010559 C64.58421224 12.26863397 58.38649934 12.23914676 52.18865967 12.20599365 C45.8679895 12.17534271 39.54728552 12.1616109 33.2265625 12.14648438 C20.81761597 12.11427937 8.40882541 12.06305501 -4 12 C-4 11.67 -4 11.34 -4 11 C30.32 11 64.64 11 100 11 C100.66 8.03 101.32 5.06 102 2 C100.73736328 2.00580078 99.47472656 2.01160156 98.17382812 2.01757812 C78.84473977 2.07555915 59.52100509 1.79930638 40.19421387 1.53643799 C35.64772049 1.47494878 31.10120299 1.41529688 26.5546875 1.35546875 C17.70310106 1.23872972 8.85154246 1.12002746 0 1 C0 0.67 0 0.34 0 0 Z " fill="#7C6843" transform="translate(78,289)"/>
<path d="M0 0 C4.62 0 9.24 0 14 0 C13.67 0.66 13.34 1.32 13 2 C9.04 1.67 5.08 1.34 1 1 C1 17.5 1 34 1 51 C4.3 51 7.6 51 11 51 C10.67 40.77 10.34 30.54 10 20 C9.34 19.67 8.68 19.34 8 19 C9.2419607 15.56072421 10.55740284 12.74792181 13 10 C13.66 10 14.32 10 15 10 C14.67 7.69 14.34 5.38 14 3 C16.71900856 6.24219971 18.10338362 9.48096185 19.5625 13.4375 C19.97628906 14.54996094 20.39007813 15.66242188 20.81640625 16.80859375 C21.40228516 18.38833984 21.40228516 18.38833984 22 20 C22.66086893 21.66897408 23.32530002 23.33656916 24 25 C24.66 24.67 25.32 24.34 26 24 C25.67 25.32 25.34 26.64 25 28 C21.96799661 26.9893322 21.00121175 26.36506843 19 24 C18.67 23.01 18.34 22.02 18 21 C16.35 21.33 14.7 21.66 13 22 C12.67 31.9 12.34 41.8 12 52 C8.04 52 4.08 52 0 52 C0 34.84 0 17.68 0 0 Z " fill="#775D29" transform="translate(360,211)"/>
<path d="M0 0 C0.66 0.33 1.32 0.66 2 1 C1.34 2.65 0.68 4.3 0 6 C0.99 6.33 1.98 6.66 3 7 C3.556875 6.319375 4.11375 5.63875 4.6875 4.9375 C7 3 7 3 9.5625 3.0625 C12.076023 4.02923961 13.30143878 4.94384695 15 7 C14 9 14 9 12.15234375 9.6328125 C11.05599609 9.87644531 11.05599609 9.87644531 9.9375 10.125 C8.83728516 10.37636719 8.83728516 10.37636719 7.71484375 10.6328125 C7.14894531 10.75398438 6.58304687 10.87515625 6 11 C3.71512241 17.34188464 3.76700224 23.24579268 3.875 29.9375 C3.88853516 31.53561523 3.88853516 31.53561523 3.90234375 33.16601562 C3.92576586 35.77758034 3.95856548 38.38866937 4 41 C3.67 40.34 3.34 39.68 3 39 C2.34 39 1.68 39 1 39 C1 29.76 1 20.52 1 11 C-4.14462031 13.34920863 -4.14462031 13.34920863 -5 17 C-5.66 17 -6.32 17 -7 17 C-7 26.24 -7 35.48 -7 45 C-7.33 45 -7.66 45 -8 45 C-8.09954745 40.30442353 -8.17178467 35.60947337 -8.21972656 30.91308594 C-8.23973053 29.31857592 -8.26694301 27.72413822 -8.30175781 26.12988281 C-8.65267234 9.63690024 -8.65267234 9.63690024 -4 3 C-1.75 1 -1.75 1 0 0 Z " fill="#A6854C" transform="translate(274,278)"/>
<path d="M0 0 C3.39430394 3.39430394 5 8.2304993 5 13 C5.66 12.67 6.32 12.34 7 12 C7.08159574 16.16138263 6.98248524 19.9472484 6 24 C9.96 23.505 9.96 23.505 14 23 C14 23.66 14 24.32 14 25 C11.03 25 8.06 25 5 25 C4.67 22.36 4.34 19.72 4 17 C3.01 18.98 2.02 20.96 1 23 C-0.32 23 -1.64 23 -3 23 C-3.12117188 23.56847656 -3.24234375 24.13695312 -3.3671875 24.72265625 C-4.41322054 29.54245464 -5.59204484 34.2732934 -7 39 C-6.34 39.33 -5.68 39.66 -5 40 C-6.98 40.495 -6.98 40.495 -9 41 C-9 41.66 -9 42.32 -9 43 C-6.03 43 -3.06 43 0 43 C0 43.33 0 43.66 0 44 C-3.96 44 -7.92 44 -12 44 C-8 29.33333333 -4 14.66666667 0 0 Z " fill="#B49152" transform="translate(424,219)"/>
<path d="M0 0 C2.40569876 0.84907015 4.77015214 1.76881339 7.125 2.75 C7.125 3.41 7.125 4.07 7.125 4.75 C7.785 4.75 8.445 4.75 9.125 4.75 C10.93742323 8.7688515 12.46001617 12.36110675 13.125 16.75 C9.10946468 18.08851177 5.31875775 18.48449995 1.125 17.75 C-0.5625 15.3125 -0.5625 15.3125 -1.875 12.75 C-4.89114295 11.92768475 -4.89114295 11.92768475 -7.875 11.75 C-8.535 11.42 -9.195 11.09 -9.875 10.75 C-8.885 10.09 -7.895 9.43 -6.875 8.75 C-6.545 8.09 -6.215 7.43 -5.875 6.75 C-4.885 7.08 -3.895 7.41 -2.875 7.75 C-3.535 5.77 -4.195 3.79 -4.875 1.75 C-1.875 -0.25 -1.875 -0.25 0 0 Z " fill="#BB9450" transform="translate(244.875,276.25)"/>
<path d="M0 0 C0.33 0 0.66 0 1 0 C1.144375 1.2375 1.28875 2.475 1.4375 3.75 C1.78688502 6.56504499 2.20379366 9.2701497 3 12 C3.66 12 4.32 12 5 12 C5 12.66 5 13.32 5 14 C7.97 14.99 10.94 15.98 14 17 C14 17.33 14 17.66 14 18 C11.03 18.33 8.06 18.66 5 19 C5 19.99 5 20.98 5 22 C5.66 22.33 6.32 22.66 7 23 C6.34 23 5.68 23 5 23 C5.33 24.32 5.66 25.64 6 27 C4.35 27 2.7 27 1 27 C0.67 26.34 0.34 25.68 0 25 C-0.66 26.98 -1.32 28.96 -2 31 C-3.74627478 28.38058783 -4.38722388 26.96175123 -5 24 C-5.66 24 -6.32 24 -7 24 C-6.505 22.515 -6.505 22.515 -6 21 C-5.34 20.67 -4.68 20.34 -4 20 C-2.27053328 17.45131221 -1.9526226 16.34743429 -2.375 13.25 C-2.58125 12.5075 -2.7875 11.765 -3 11 C-2.34 10.67 -1.68 10.34 -1 10 C-1.01160156 9.36191406 -1.02320313 8.72382813 -1.03515625 8.06640625 C-1.04417969 7.24011719 -1.05320313 6.41382813 -1.0625 5.5625 C-1.07410156 4.73878906 -1.08570313 3.91507813 -1.09765625 3.06640625 C-1 1 -1 1 0 0 Z " fill="#BB9752" transform="translate(171,176)"/>
<path d="M0 0 C2.375 1.875 2.375 1.875 4 4 C6.63222962 5.25436187 6.63222962 5.25436187 9 6 C9 6.66 9 7.32 9 8 C9.99 8.33 10.98 8.66 12 9 C12 9.33 12 9.66 12 10 C-0.59282511 11.72107623 -0.59282511 11.72107623 -4.04296875 9.953125 C-5.375 8.5625 -5.375 8.5625 -7 6 C-9.21736634 7.10868317 -11.03617993 8.49440461 -13 10 C-13.33 9.34 -13.66 8.68 -14 8 C-14.66 8 -15.32 8 -16 8 C-13.50522579 -0.82766259 -8.38755874 -1.06267712 0 0 Z " fill="#CCA157" transform="translate(290,276)"/>
<path d="M0 0 C3.96 1.98 7.92 3.96 12 6 C12 6.66 12 7.32 12 8 C10.68 8 9.36 8 8 8 C8.350625 8.763125 8.70125 9.52625 9.0625 10.3125 C10 13 10 13 9 16 C7.58249437 15.88490339 6.16598831 15.75746342 4.75 15.625 C3.56664062 15.52058594 3.56664062 15.52058594 2.359375 15.4140625 C-0.085877 14.98492887 -1.84836903 14.21399362 -4 13 C-4 12.34 -4 11.68 -4 11 C-4.598125 10.9175 -5.19625 10.835 -5.8125 10.75 C-8.5966296 9.79544128 -9.43311142 8.42867729 -11 6 C-10.67 5.34 -10.34 4.68 -10 4 C-9.34 4.33 -8.68 4.66 -8 5 C-8 4.34 -8 3.68 -8 3 C-6.35 3 -4.7 3 -3 3 C-2.67 4.65 -2.34 6.3 -2 8 C-1.01 8 -0.02 8 1 8 C1.09805807 4.64045375 1.09805807 4.64045375 0 0 Z M6 10 C6.33 10.66 6.66 11.32 7 12 C7.33 11.34 7.66 10.68 8 10 C7.34 10 6.68 10 6 10 Z " fill="#C39D55" transform="translate(233,295)"/>
<path d="M0 0 C4.95 0 9.9 0 15 0 C15 2.97 15 5.94 15 9 C10.05 9.33 5.1 9.66 0 10 C-0.33 13.96 -0.66 17.92 -1 22 C-1.66 22 -2.32 22 -3 22 C-2.91621094 21.09636719 -2.83242188 20.19273437 -2.74609375 19.26171875 C-2.64425781 18.08222656 -2.54242188 16.90273438 -2.4375 15.6875 C-2.33308594 14.51574219 -2.22867187 13.34398437 -2.12109375 12.13671875 C-1.81422566 8.96967425 -1.81422566 8.96967425 -3 6 C-2.67 5.34 -2.34 4.68 -2 4 C-1.34 4 -0.68 4 0 4 C0 2.68 0 1.36 0 0 Z " fill="#C9A35B" transform="translate(423,302)"/>
<path d="M0 0 C0.33 1.32 0.66 2.64 1 4 C1.66 4 2.32 4 3 4 C3 4.66 3 5.32 3 6 C3.66 6.33 4.32 6.66 5 7 C4.01 7.33 3.02 7.66 2 8 C2 13.61 2 19.22 2 25 C6.06888944 18.11631884 6.06888944 18.11631884 6 11 C6.99 10.67 7.98 10.34 9 10 C10.66710346 8.50014391 10.66710346 8.50014391 12 7 C11.96519531 8.35544922 11.96519531 8.35544922 11.9296875 9.73828125 C11.91164063 10.91777344 11.89359375 12.09726563 11.875 13.3125 C11.85179688 14.48425781 11.82859375 15.65601563 11.8046875 16.86328125 C11.74679382 20.16393661 11.74679382 20.16393661 14 23 C14 23.99 14 24.98 14 26 C12.9275 25.979375 11.855 25.95875 10.75 25.9375 C7.85209576 25.9857984 5.71387859 26.13155885 3 27 C3 29.31 3 31.62 3 34 C-2.55207218 23.73566488 -1.72146517 11.18952363 0 0 Z " fill="#CFA654" transform="translate(100,165)"/>
<path d="M0 0 C1.95766281 -0.08082094 3.91626728 -0.13910778 5.875 -0.1875 C7.51082031 -0.23970703 7.51082031 -0.23970703 9.1796875 -0.29296875 C10.11039062 -0.19628906 11.04109375 -0.09960938 12 0 C14.63701337 3.95552006 15.49697412 7.93462154 16.6875 12.5 C17.04424805 13.80130859 17.04424805 13.80130859 17.40820312 15.12890625 C17.62798828 15.96292969 17.84777344 16.79695313 18.07421875 17.65625 C18.37718872 18.79803711 18.37718872 18.79803711 18.6862793 19.96289062 C19 22 19 22 18 25 C18 24.34 18 23.68 18 23 C16.68 23.99 15.36 24.98 14 26 C14.33 27.65 14.66 29.3 15 31 C14.01 31.33 13.02 31.66 12 32 C11.67 31.34 11.34 30.68 11 30 C10.34 30.33 9.68 30.66 9 31 C8.67 28.69 8.34 26.38 8 24 C8.66 24 9.32 24 10 24 C10.103125 22.88625 10.20625 21.7725 10.3125 20.625 C10.539375 19.42875 10.76625 18.2325 11 17 C11.99 16.34 12.98 15.68 14 15 C14.72382467 12.94074861 14.72382467 12.94074861 15 11 C14.34 11 13.68 11 13 11 C12.34 8.69 11.68 6.38 11 4 C7.37 3.67 3.74 3.34 0 3 C0 2.01 0 1.02 0 0 Z " fill="#BD954F" transform="translate(427,211)"/>
<path d="M0 0 C0.66 0 1.32 0 2 0 C2.103125 0.61875 2.20625 1.2375 2.3125 1.875 C2.87525373 4.36526484 2.87525373 4.36526484 6 6 C5.67 7.65 5.34 9.3 5 11 C4.01 11 3.02 11 2 11 C2 11.66 2 12.32 2 13 C0.72125 12.95875 -0.5575 12.9175 -1.875 12.875 C-7.08872856 12.85842217 -11.94007672 13.81688642 -17 15 C-16.01 12.36 -15.02 9.72 -14 7 C-10.37 7.33 -6.74 7.66 -3 8 C-2.67 6.02 -2.34 4.04 -2 2 C-1.34 2 -0.68 2 0 2 C0 1.34 0 0.68 0 0 Z " fill="#C89F54" transform="translate(248,320)"/>
<path d="M0 0 C0.45375 0.66 0.9075 1.32 1.375 2 C5.33232033 5.0151012 9.19004145 4.33045517 14 4 C13.690625 4.886875 13.38125 5.77375 13.0625 6.6875 C12.16941343 9.47182872 11.5417292 12.1351798 11 15 C0.43294012 16.75799188 0.43294012 16.75799188 -4.125 14.3125 C-7 12 -7 12 -7.9375 9.75 C-7.958125 9.1725 -7.97875 8.595 -8 8 C-4.125 9.75 -4.125 9.75 -3 12 C-0.88153715 12.68729254 -0.88153715 12.68729254 1.5625 13.125 C2.80193359 13.37636719 2.80193359 13.37636719 4.06640625 13.6328125 C4.70449219 13.75398438 5.34257812 13.87515625 6 14 C5.67 13.34 5.34 12.68 5 12 C2.47266765 11.34444881 2.47266765 11.34444881 0 11 C-0.144375 10.401875 -0.28875 9.80375 -0.4375 9.1875 C-0.8872439 7.43849596 -1.42892341 5.71322977 -2 4 C-2.66 3.67 -3.32 3.34 -4 3 C-3.34 2.67 -2.68 2.34 -2 2 C-1.34 2.33 -0.68 2.66 0 3 C0 2.01 0 1.02 0 0 Z M-6 4 C-5.34 4 -4.68 4 -4 4 C-4.33 4.99 -4.66 5.98 -5 7 C-5.33 6.01 -5.66 5.02 -6 4 Z " fill="#B18D49" transform="translate(326,319)"/>
<path d="M0 0 C0.66 0.33 1.32 0.66 2 1 C2 2.65 2 4.3 2 6 C2.66 6 3.32 6 4 6 C4 6.66 4 7.32 4 8 C6.97 8.495 6.97 8.495 10 9 C8.5044953 12.87071806 7.06130928 15.30761307 3.5625 17.5 C0 19 0 19 -2.4375 18.25 C-2.953125 17.8375 -3.46875 17.425 -4 17 C-3.34 16.34 -2.68 15.68 -2 15 C-2 14.01 -2 13.02 -2 12 C-2.99 11.67 -3.98 11.34 -5 11 C-5 9.68 -5 8.36 -5 7 C-4.01 7 -3.02 7 -2 7 C-2.061875 5.824375 -2.061875 5.824375 -2.125 4.625 C-2 2 -2 2 0 0 Z " fill="#D0A659" transform="translate(140,154)"/>
<path d="M0 0 C2 2 2 2 2 5 C7.28 5 12.56 5 18 5 C18 5.33 18 5.66 18 6 C13.38 6 8.76 6 4 6 C3.855625 7.299375 3.71125 8.59875 3.5625 9.9375 C3.125 13.875 3.125 13.875 2 15 C0.48071962 15.07179964 -1.04167482 15.08392007 -2.5625 15.0625 C-3.38878906 15.05347656 -4.21507812 15.04445313 -5.06640625 15.03515625 C-5.70449219 15.02355469 -6.34257812 15.01195312 -7 15 C-7 13 -7 13 -5 11 C-5.0928125 9.6078125 -5.0928125 9.6078125 -5.1875 8.1875 C-5 5 -5 5 -2.5 2.125 C-1.2625 1.073125 -1.2625 1.073125 0 0 Z " fill="#B19052" transform="translate(422,247)"/>
<path d="M0 0 C1.32 1.32 2.64 2.64 4 4 C3.67 3.01 3.34 2.02 3 1 C3.99 1.33 4.98 1.66 6 2 C5.67 2.99 5.34 3.98 5 5 C4.77820215 6.89212737 4.59385985 8.78884472 4.4375 10.6875 C4.35371094 11.68136719 4.26992187 12.67523438 4.18359375 13.69921875 C4.12300781 14.45847656 4.06242187 15.21773437 4 16 C3.67 16 3.34 16 3 16 C2.67 13.36 2.34 10.72 2 8 C1.34 8 0.68 8 0 8 C0.268125 8.969375 0.53625 9.93875 0.8125 10.9375 C1.61615589 16.09781674 -1.26923685 19.83298772 -4 24 C-4.33 24 -4.66 24 -5 24 C-5 17.73 -5 11.46 -5 5 C-3.68 4.67 -2.36 4.34 -1 4 C-0.67 2.68 -0.34 1.36 0 0 Z " fill="#D1A85C" transform="translate(106,168)"/>
<path d="M0 0 C0.61875 0.7115625 0.61875 0.7115625 1.25 1.4375 C3.182185 3.16266518 4.48192275 3.56584875 7 4 C6.65877813 7.07099684 6.11774025 8.8342915 4.3125 11.375 C2 13 2 13 -1.0625 12.875 C-4 12 -4 12 -7 10 C-6.67 9.67 -6.34 9.34 -6 9 C-6.66 8.34 -7.32 7.68 -8 7 C-7 5 -7 5 -4.5625 4.0625 C-1.70136041 3.15452711 -1.70136041 3.15452711 0 0 Z " fill="#CA9E55" transform="translate(296,321)"/>
<path d="M0 0 C3.68754757 0.49831724 5.60490662 1.10067643 8 4 C7 6 7 6 5.15234375 6.6328125 C4.42144531 6.79523438 3.69054687 6.95765625 2.9375 7.125 C2.20402344 7.29257812 1.47054688 7.46015625 0.71484375 7.6328125 C0.14894531 7.75398438 -0.41695313 7.87515625 -1 8 C-3.28487759 14.34188464 -3.23299776 20.24579268 -3.125 26.9375 C-3.11146484 28.53561523 -3.11146484 28.53561523 -3.09765625 30.16601562 C-3.07423414 32.77758034 -3.04143452 35.38866937 -3 38 C-3.33 37.34 -3.66 36.68 -4 36 C-4.66 36 -5.32 36 -6 36 C-5.98952637 35.16227051 -5.97905273 34.32454102 -5.96826172 33.46142578 C-5.93419981 30.35661836 -5.90911089 27.25190608 -5.89013672 24.14697266 C-5.87511893 22.1408864 -5.84971019 20.13488676 -5.82421875 18.12890625 C-5.81777344 16.87207031 -5.81132812 15.61523438 -5.8046875 14.3203125 C-5.79421387 13.15773926 -5.78374023 11.99516602 -5.77294922 10.79736328 C-5.70738003 7.86089721 -5.70738003 7.86089721 -8 6 C-6.20963542 5.0234375 -4.41927083 4.046875 -2.62890625 3.0703125 C-0.83381685 2.08589976 -0.83381685 2.08589976 0 0 Z " fill="#B18E4F" transform="translate(281,281)"/>
<path d="M0 0 C0.886875 0.78375 1.77375 1.5675 2.6875 2.375 C4.81501144 4.17985568 6.12815265 5.04556539 8.8125 6 C11 7 11 7 12.0625 9.25 C11.97089382 13.28067187 10.68819969 15.04298034 8 18 C4.5625 18.8125 4.5625 18.8125 1 19 C-0.66934283 19.31966139 -2.3373217 19.64731066 -4 20 C-4.66 18.68 -5.32 17.36 -6 16 C-5.29875 15.896875 -4.5975 15.79375 -3.875 15.6875 C0.32425058 14.68333138 4.00492425 13.58307506 6.375 9.8125 C6.58125 9.214375 6.7875 8.61625 7 8 C4.525 7.01 4.525 7.01 2 6 C2 5.34 2 4.68 2 4 C1.34 4 0.68 4 0 4 C0 2.68 0 1.36 0 0 Z " fill="#C79E51" transform="translate(142,156)"/>
<path d="M0 0 C2.31 0.66 4.62 1.32 7 2 C7 7.44309148 6.82965992 12.6072105 6 18 C4 16 4 16 3.4375 13 C2.35135714 9.8588792 2.35135714 9.8588792 -0.12890625 9.1640625 C-2.41734971 8.66984466 -4.67584363 8.27736846 -7 8 C-6.21625 7.236875 -5.4325 6.47375 -4.625 5.6875 C-1.92742283 3.09108195 -1.92742283 3.09108195 0 0 Z " fill="#CCA358" transform="translate(339,277)"/>
<path d="M0 0 C7.92 0 15.84 0 24 0 C24 2.97 24 5.94 24 9 C19.05 9 14.1 9 9 9 C9 12.3 9 15.6 9 19 C13.29 19 17.58 19 22 19 C22 19.33 22 19.66 22 20 C17.38 20 12.76 20 8 20 C7.90234375 10.72265625 7.90234375 10.72265625 8 8 C9 7 9 7 11.94140625 6.90234375 C13.73384766 6.91974609 13.73384766 6.91974609 15.5625 6.9375 C17.35880859 6.95103516 17.35880859 6.95103516 19.19140625 6.96484375 C20.11824219 6.97644531 21.04507812 6.98804688 22 7 C22 5.02 22 3.04 22 1 C14.74 1 7.48 1 0 1 C0 0.67 0 0.34 0 0 Z " fill="#9B8150" transform="translate(329,212)"/>
<path d="M0 0 C2.63739583 1.31869792 2.93280025 2.59789768 4.1640625 5.25390625 C4.76347656 6.53491211 4.76347656 6.53491211 5.375 7.84179688 C5.7875 8.73962891 6.2 9.63746094 6.625 10.5625 C7.25535156 11.91504883 7.25535156 11.91504883 7.8984375 13.29492188 C8.93790496 15.52741449 9.97146819 17.76245338 11 20 C9.75 21.5 9.75 21.5 8 23 C6.68 23 5.36 23 4 23 C4.33 24.98 4.66 26.96 5 29 C1.9083091 26.47043472 1.09068668 23.77545388 0 20 C1.32 20 2.64 20 4 20 C5.33261383 15.60317232 4.63223365 13.47039565 2.5625 9.4375 C0.6962823 5.77117041 0 4.21542054 0 0 Z " fill="#AB8B4D" transform="translate(295,215)"/>
<path d="M0 0 C0.33 0 0.66 0 1 0 C1.10957031 0.98742187 1.21914063 1.97484375 1.33203125 2.9921875 C1.49058594 4.27351563 1.64914062 5.55484375 1.8125 6.875 C1.96332031 8.15117187 2.11414063 9.42734375 2.26953125 10.7421875 C2.66848082 14.27770316 2.66848082 14.27770316 6 16 C8.11280345 16.63292383 8.11280345 16.63292383 10 17 C9.67 17.66 9.34 18.32 9 19 C8.34 19 7.68 19 7 19 C7 19.66 7 20.32 7 21 C6.01 21.33 5.02 21.66 4 22 C1.49962266 19.82575883 0.56371414 18.26954202 0 15 C-0.99 15.495 -0.99 15.495 -2 16 C-4.04498425 15.91219597 -6.08744948 15.75758462 -8.125 15.5625 C-9.76855469 15.40974609 -9.76855469 15.40974609 -11.4453125 15.25390625 C-12.28835938 15.17011719 -13.13140625 15.08632813 -14 15 C-14 14.67 -14 14.34 -14 14 C-8.06 13.505 -8.06 13.505 -2 13 C-1.34 8.71 -0.68 4.42 0 0 Z M3 13 C5 14 5 14 5 14 Z " fill="#AC8B4C" transform="translate(391,291)"/>
<path d="M0 0 C0.66 0 1.32 0 2 0 C2.99 1.98 3.98 3.96 5 6 C5.66 5.67 6.32 5.34 7 5 C10.5625 5.75 10.5625 5.75 14 7 C15 10 15 10 14 13 C11.03 13 8.06 13 5 13 C4.16209211 11.21046815 3.32980604 9.41830305 2.5 7.625 C1.80390625 6.12839844 1.80390625 6.12839844 1.09375 4.6015625 C0 2 0 2 0 0 Z " fill="#B69452" transform="translate(375,240)"/>
<path d="M0 0 C0.33 0 0.66 0 1 0 C1.61619487 11.5365372 1.61619487 11.5365372 -0.5 16.5625 C-5.94405736 21.87045593 -10.36820685 23.23339109 -18 23.25 C-20.00072285 23.18634064 -22.00127206 23.10968629 -24 23 C-24 22.34 -24 21.68 -24 21 C-12.47835991 18.51936219 -12.47835991 18.51936219 -7 20 C-7 19.34 -7 18.68 -7 18 C-6.01 18 -5.02 18 -4 18 C-4 16.35 -4 14.7 -4 13 C-3.34 12.67 -2.68 12.34 -2 12 C-1.30772968 9.19019327 -1.30772968 9.19019327 -0.875 5.9375 C-0.70742188 4.83277344 -0.53984375 3.72804688 -0.3671875 2.58984375 C-0.24601562 1.73519531 -0.12484375 0.88054687 0 0 Z " fill="#9D8149" transform="translate(257,313)"/>
<path d="M0 0 C3.81498876 0.93701478 5.18001996 1.82542555 7.5625 4.875 C7.5625 5.205 7.5625 5.535 7.5625 5.875 C4.5925 5.875 1.6225 5.875 -1.4375 5.875 C-1.4375 6.535 -1.4375 7.195 -1.4375 7.875 C-3.0875 8.535 -4.7375 9.195 -6.4375 9.875 C-6.4375 9.215 -6.4375 8.555 -6.4375 7.875 C-7.0975 7.875 -7.7575 7.875 -8.4375 7.875 C-6.93600123 2.56200435 -6.10283216 -0.22192117 0 0 Z " fill="#BF9B51" transform="translate(282.4375,276.125)"/>
<path d="M0 0 C2.3125 0.1875 2.3125 0.1875 4 1 C3.67 2.65 3.34 4.3 3 6 C3.66 6.33 4.32 6.66 5 7 C5 7.66 5 8.32 5 9 C8.465 8.505 8.465 8.505 12 8 C11.67 7.01 11.34 6.02 11 5 C13.475 5.495 13.475 5.495 16 6 C15.01 6.495 15.01 6.495 14 7 C13.34786708 9.02463255 13.34786708 9.02463255 13 11 C10.36 11 7.72 11 5 11 C4.01 12.98 3.02 14.96 2 17 C1.67 15.68 1.34 14.36 1 13 C0.34 13 -0.32 13 -1 13 C-1.33 11.68 -1.66 10.36 -2 9 C-0.68 8.67 0.64 8.34 2 8 C1.34 7.67 0.68 7.34 0 7 C0 6.01 0 5.02 0 4 C-1.65 4.33 -3.3 4.66 -5 5 C-2.75 2.4375 -2.75 2.4375 0 0 Z " fill="#9E7F44" transform="translate(231,211)"/>
<path d="M0 0 C1.21236328 0.01353516 1.21236328 0.01353516 2.44921875 0.02734375 C3.37154297 0.04474609 3.37154297 0.04474609 4.3125 0.0625 C2.3325 1.0525 2.3325 1.0525 0.3125 2.0625 C2.7875 3.0525 2.7875 3.0525 5.3125 4.0625 C4.9825 4.7225 4.6525 5.3825 4.3125 6.0625 C3.6525 5.7325 2.9925 5.4025 2.3125 5.0625 C2.3125 5.7225 2.3125 6.3825 2.3125 7.0625 C2.9725 7.3925 3.6325 7.7225 4.3125 8.0625 C3.3125 9.0625 3.3125 9.0625 -0.25 9.125 C-1.384375 9.104375 -2.51875 9.08375 -3.6875 9.0625 C-3.6875 8.4025 -3.6875 7.7425 -3.6875 7.0625 C-4.6775 6.7325 -5.6675 6.4025 -6.6875 6.0625 C-7.0175 4.4125 -7.3475 2.7625 -7.6875 1.0625 C-4.80538698 0.10179566 -2.98899956 -0.04331883 0 0 Z " fill="#CFA85D" transform="translate(239.6875,210.9375)"/>
<path d="M0 0 C0.77472656 0.00451172 1.54945313 0.00902344 2.34765625 0.01367188 C4.23180524 0.02530242 6.11591365 0.04323094 8 0.0625 C8.05422947 1.4995809 8.09289723 2.93725462 8.125 4.375 C8.14820313 5.17550781 8.17140625 5.97601563 8.1953125 6.80078125 C8 9.0625 8 9.0625 6 12.0625 C4.02880859 12.40307617 4.02880859 12.40307617 1.6484375 12.35546875 C0.79765625 12.34580078 -0.053125 12.33613281 -0.9296875 12.32617188 C-1.81914062 12.30103516 -2.70859375 12.27589844 -3.625 12.25 C-4.5221875 12.23646484 -5.419375 12.22292969 -6.34375 12.20898438 C-8.56309789 12.17356925 -10.78125188 12.12418461 -13 12.0625 C-13 11.7325 -13 11.4025 -13 11.0625 C-7.06 11.0625 -1.12 11.0625 5 11.0625 C5.66 8.0925 6.32 5.1225 7 2.0625 C-0.92 2.0625 -8.84 2.0625 -17 2.0625 C-17 1.7325 -17 1.4025 -17 1.0625 C-11.28094617 0.23713655 -5.7732851 -0.06503701 0 0 Z " fill="#A38B59" transform="translate(173,288.9375)"/>
<path d="M0 0 C0.66 0.66 1.32 1.32 2 2 C1.01 2.66 0.02 3.32 -1 4 C-1 5.32 -1 6.64 -1 8 C-2.32 8.33 -3.64 8.66 -5 9 C-4.34 9.33 -3.68 9.66 -3 10 C-5.31 10.66 -7.62 11.32 -10 12 C-9.67 11.01 -9.34 10.02 -9 9 C-9.33 9 -9.66 9 -10 9 C-10.33 6.69 -10.66 4.38 -11 2 C-6.93150591 -0.71232939 -4.83523216 -0.30699887 0 0 Z " fill="#CCA45F" transform="translate(243,276)"/>
<path d="M0 0 C0.99 0.33 1.98 0.66 3 1 C3 2.98 3 4.96 3 7 C3.66 6.67 4.32 6.34 5 6 C5.08159574 10.16138263 4.98248524 13.9472484 4 18 C7.96 17.505 7.96 17.505 12 17 C12 17.66 12 18.32 12 19 C9.03 19 6.06 19 3 19 C2.67 16.36 2.34 13.72 2 11 C1.34 12.32 0.68 13.64 0 15 C-0.66 15 -1.32 15 -2 15 C-2.33 12.03 -2.66 9.06 -3 6 C-2.34 5.67 -1.68 5.34 -1 5 C-0.34444881 2.47266765 -0.34444881 2.47266765 0 0 Z " fill="#B4934D" transform="translate(426,225)"/>
<path d="M0 0 C0.66 0 1.32 0 2 0 C2 4.95 2 9.9 2 15 C7.28 15 12.56 15 18 15 C18 18.63 18 22.26 18 26 C12.72 26 7.44 26 2 26 C2 25.67 2 25.34 2 25 C6.95 25 11.9 25 17 25 C17 22.03 17 19.06 17 16 C15.85660156 16.08378906 14.71320313 16.16757812 13.53515625 16.25390625 C12.04428998 16.35704794 10.55340347 16.45989747 9.0625 16.5625 C8.30775391 16.61857422 7.55300781 16.67464844 6.77539062 16.73242188 C4.85254042 16.86176157 2.92610452 16.93516912 1 17 C0 16 0 16 -0.09765625 12.40234375 C-0.0909822 10.91403133 -0.07902183 9.42573568 -0.0625 7.9375 C-0.05798828 7.17888672 -0.05347656 6.42027344 -0.04882812 5.63867188 C-0.0370068 3.75908129 -0.01907078 1.87953101 0 0 Z " fill="#7B6335" transform="translate(421,286)"/>
<path d="M0 0 C0.8971875 0.5259375 0.8971875 0.5259375 1.8125 1.0625 C4.10813214 2.33304698 4.10813214 2.33304698 7 1 C10 5.75 10 5.75 10 8 C11.65 8.33 13.3 8.66 15 9 C15 9.66 15 10.32 15 11 C11.94899501 10.87207526 8.98481952 10.66506674 6 10 C4.125 7.9375 4.125 7.9375 3 6 C2.01 6 1.02 6 0 6 C-1 3 -1 3 0 0 Z " fill="#CA9E4F" transform="translate(317,322)"/>
<path d="M0 0 C0.33 0 0.66 0 1 0 C1 1.65 1 3.3 1 5 C1.66 5 2.32 5 3 5 C3 5.66 3 6.32 3 7 C9.31268603 7.37552165 9.31268603 7.37552165 15 5 C14.67 6.98 14.34 8.96 14 11 C11.69 11.33 9.38 11.66 7 12 C7 11.34 7 10.68 7 10 C5.68 10.33 4.36 10.66 3 11 C3.33 11.66 3.66 12.32 4 13 C3.34 13 2.68 13 2 13 C2 13.66 2 14.32 2 15 C1.34 14.67 0.68 14.34 0 14 C0 9.38 0 4.76 0 0 Z " fill="#B5924E" transform="translate(231,317)"/>
<path d="M0 0 C0.45375 0.639375 0.9075 1.27875 1.375 1.9375 C2.83921726 4.09702406 2.83921726 4.09702406 5 5 C6.70702735 5.06996014 8.41668003 5.08440154 10.125 5.0625 C11.03507813 5.05347656 11.94515625 5.04445312 12.8828125 5.03515625 C13.58148438 5.02355469 14.28015625 5.01195312 15 5 C14.67 5.66 14.34 6.32 14 7 C13.01 7.33 12.02 7.66 11 8 C10.67 8.66 10.34 9.32 10 10 C6.66666667 10 3.33333333 10 0 10 C-0.99 10.495 -0.99 10.495 -2 11 C-2.33 10.01 -2.66 9.02 -3 8 C-2.34 8 -1.68 8 -1 8 C-1.020625 6.865625 -1.04125 5.73125 -1.0625 4.5625 C-1 1 -1 1 0 0 Z " fill="#CDA85A" transform="translate(229,248)"/>
<path d="M0 0 C1.46652017 2.88019276 2.82047874 5.79308515 4.125 8.75 C4.47820312 9.54921875 4.83140625 10.3484375 5.1953125 11.171875 C5.46085937 11.77515625 5.72640625 12.3784375 6 13 C6.66 12.67 7.32 12.34 8 12 C7.67 13.32 7.34 14.64 7 16 C3.96799661 14.9893322 3.00121175 14.36506843 1 12 C0.67 11.01 0.34 10.02 0 9 C-1.32 9.33 -2.64 9.66 -4 10 C-5 7 -5 7 -3.6875 3.875 C-2 1 -2 1 0 0 Z " fill="#BB9851" transform="translate(378,223)"/>
<path d="M0 0 C0.99 0.66 1.98 1.32 3 2 C3.66 2.165 4.32 2.33 5 2.5 C7 3 7 3 10 5 C6.7 5 3.4 5 0 5 C0 11.27 0 17.54 0 24 C-0.66 24 -1.32 24 -2 24 C-2.05819424 20.75007554 -2.09366116 17.50028565 -2.125 14.25 C-2.14175781 13.32960938 -2.15851563 12.40921875 -2.17578125 11.4609375 C-2.18222656 10.57148438 -2.18867188 9.68203125 -2.1953125 8.765625 C-2.20578613 7.94868164 -2.21625977 7.13173828 -2.22705078 6.29003906 C-1.97829916 3.78112482 -1.25700129 2.16604375 0 0 Z " fill="#C9A768" transform="translate(377,282)"/>
<path d="M0 0 C1.21983748 2.43967497 1.12051527 3.99904524 1.11352539 6.72509766 C1.11344986 7.70596344 1.11337433 8.68682922 1.11329651 9.69741821 C1.10813522 10.75891083 1.10297394 11.82040344 1.09765625 12.9140625 C1.0962413 13.99883881 1.09482635 15.08361511 1.09336853 16.20126343 C1.08775802 19.67587 1.07520372 23.15041281 1.0625 26.625 C1.05748635 28.97656157 1.05292321 31.32812415 1.04882812 33.6796875 C1.03778518 39.45314686 1.02103679 45.22656888 1 51 C0.67 51 0.34 51 0 51 C0 35.16 0 19.32 0 3 C-1.65 3.33 -3.3 3.66 -5 4 C-5.66 3.34 -6.32 2.68 -7 2 C-4.35261084 0.5393715 -3.10551666 0 0 0 Z " fill="#9C814B" transform="translate(207,231)"/>
<path d="M0 0 C0.66 0 1.32 0 2 0 C1.5256902 4.2687882 -0.80716564 6.31511656 -4 9 C-6.8125 9.8125 -6.8125 9.8125 -9 10 C-9 10.66 -9 11.32 -9 12 C-14.75 10.25 -14.75 10.25 -17 8 C-16.67 7.34 -16.34 6.68 -16 6 C-13.9375 5.375 -13.9375 5.375 -12 5 C-12 5.66 -12 6.32 -12 7 C-8.535 6.505 -8.535 6.505 -5 6 C-5.33 5.67 -5.66 5.34 -6 5 C-6 4.67 -6 4.34 -6 4 C-4.35 3.67 -2.7 3.34 -1 3 C-0.67 2.01 -0.34 1.02 0 0 Z " fill="#A88845" transform="translate(244,251)"/>
<path d="M0 0 C1.95766281 -0.08082094 3.91626728 -0.13910778 5.875 -0.1875 C7.51082031 -0.23970703 7.51082031 -0.23970703 9.1796875 -0.29296875 C10.11039062 -0.19628906 11.04109375 -0.09960938 12 0 C14.07702359 3.11553539 14.74906855 5.39010071 15.625 9 C16.01558594 10.5778125 16.01558594 10.5778125 16.4140625 12.1875 C17 15 17 15 17 18 C16.34 18 15.68 18 15 18 C13.95550089 14.86650268 14.06576355 14.01031744 15 11 C14.34 11 13.68 11 13 11 C12.34 8.69 11.68 6.38 11 4 C7.37 3.67 3.74 3.34 0 3 C0 2.01 0 1.02 0 0 Z " fill="#9C8252" transform="translate(427,211)"/>
<path d="M0 0 C0.99 0.33 1.98 0.66 3 1 C2.34 1 1.68 1 1 1 C1.185625 1.598125 1.37125 2.19625 1.5625 2.8125 C2 5 2 5 1 8 C1.99 7.67 2.98 7.34 4 7 C4.33 8.65 4.66 10.3 5 12 C4.01 12.33 3.02 12.66 2 13 C1.67 13.99 1.34 14.98 1 16 C0.31292445 13.50935112 0 11.62113708 0 9 C-0.94978897 6.84971696 -0.94978897 6.84971696 -2 5 C-2.4125 5.515625 -2.825 6.03125 -3.25 6.5625 C-3.8275 7.036875 -4.405 7.51125 -5 8 C-7.109375 7.58984375 -7.109375 7.58984375 -9 7 C-7.87720538 6.01830524 -6.75168527 5.03972702 -5.625 4.0625 C-4.68527344 3.24458984 -4.68527344 3.24458984 -3.7265625 2.41015625 C-2 1 -2 1 0 0 Z " fill="#AA8B51" transform="translate(74,202)"/>
<path d="M0 0 C0.33 0 0.66 0 1 0 C1 2.97 1 5.94 1 9 C-0.32 8.67 -1.64 8.34 -3 8 C-5.70465742 8.86454438 -5.70465742 8.86454438 -8 10 C-10.125 5.375 -10.125 5.375 -9 2 C-9 2.66 -9 3.32 -9 4 C-8.443125 3.67 -7.88625 3.34 -7.3125 3 C-4.69715478 1.8690399 -2.8193354 1.84337026 0 2 C0 1.34 0 0.68 0 0 Z " fill="#D3AA5E" transform="translate(148,172)"/>
<path d="M0 0 C0 0.99 0 1.98 0 3 C0.99 3.33 1.98 3.66 3 4 C1.68 4.33 0.36 4.66 -1 5 C-1.103125 5.639375 -1.20625 6.27875 -1.3125 6.9375 C-1.539375 7.618125 -1.76625 8.29875 -2 9 C-5 10 -5 10 -8 9 C-8.33 9.66 -8.66 10.32 -9 11 C-8.25 4.375 -8.25 4.375 -6 1 C-3.88864324 0.27422112 -2.22998296 0 0 0 Z " fill="#BB9754" transform="translate(231,215)"/>
<path d="M0 0 C0.33 1.32 0.66 2.64 1 4 C1.66 4 2.32 4 3 4 C3 4.66 3 5.32 3 6 C3.66 6.33 4.32 6.66 5 7 C4.01 7.33 3.02 7.66 2 8 C1.67 14.27 1.34 20.54 1 27 C1.66 27 2.32 27 3 27 C3 29.31 3 31.62 3 34 C-2.55207218 23.73566488 -1.72146517 11.18952363 0 0 Z " fill="#927545" transform="translate(100,165)"/>
<path d="M0 0 C2.64 0 5.28 0 8 0 C9.0326802 2.78823655 9.04509293 3.8677274 8.0625 6.75 C7.711875 7.4925 7.36125 8.235 7 9 C5.35 8.67 3.7 8.34 2 8 C1.67 8.66 1.34 9.32 1 10 C0.34 9.67 -0.32 9.34 -1 9 C-0.690625 8.401875 -0.38125 7.80375 -0.0625 7.1875 C1.10209704 4.91043228 1.10209704 4.91043228 2 2 C1.34 1.34 0.68 0.68 0 0 Z " fill="#D1A95C" transform="translate(151,164)"/>
<path d="M0 0 C-0.66 0 -1.32 0 -2 0 C-2.66 1.65 -3.32 3.3 -4 5 C-5.98 5 -7.96 5 -10 5 C-10 5.66 -10 6.32 -10 7 C-10.78375 7.268125 -11.5675 7.53625 -12.375 7.8125 C-15.28114923 8.84814432 -15.28114923 8.84814432 -17 12 C-18.32 11.67 -19.64 11.34 -21 11 C-19.625 9.5 -19.625 9.5 -18 8 C-17.34 8 -16.68 8 -16 8 C-16 7.34 -16 6.68 -16 6 C-13.9021477 4.79994469 -11.7979751 3.61497017 -9.6875 2.4375 C-8.79514648 1.92413086 -8.79514648 1.92413086 -7.88476562 1.40039062 C-3.33984375 -1.11328125 -3.33984375 -1.11328125 0 0 Z " fill="#A48653" transform="translate(137,128)"/>
<path d="M0 0 C1.32 0 2.64 0 4 0 C4.33 3.3 4.66 6.6 5 10 C3.02 10.66 1.04 11.32 -1 12 C-1.12375 11.360625 -1.2475 10.72125 -1.375 10.0625 C-1.58125 9.381875 -1.7875 8.70125 -2 8 C-2.66 7.67 -3.32 7.34 -4 7 C-3.3125 5.0625 -3.3125 5.0625 -2 3 C0.625 2.25 0.625 2.25 3 2 C2.01 1.67 1.02 1.34 0 1 C0 0.67 0 0.34 0 0 Z " fill="#CAA65B" transform="translate(227,317)"/>
<path d="M0 0 C0.99 0.33 1.98 0.66 3 1 C3 1.66 3 2.32 3 3 C3.66 3 4.32 3 5 3 C8 9.5 8 9.5 8 14 C7.34 14 6.68 14 6 14 C6 12.68 6 11.36 6 10 C4.68 10.33 3.36 10.66 2 11 C2 10.01 2 9.02 2 8 C1.34 8 0.68 8 0 8 C0.185625 7.236875 0.37125 6.47375 0.5625 5.6875 C1.22819173 2.91032625 1.22819173 2.91032625 0 0 Z " fill="#AC8D4D" transform="translate(249,278)"/>
<path d="M0 0 C0.33 0 0.66 0 1 0 C1.18175781 0.84884766 1.18175781 0.84884766 1.3671875 1.71484375 C1.53476563 2.44832031 1.70234375 3.18179688 1.875 3.9375 C2.11863281 5.03384766 2.11863281 5.03384766 2.3671875 6.15234375 C2.82961523 8.20700294 2.82961523 8.20700294 5 9 C-1.625 10 -1.625 10 -5 10 C-5 9.01 -5 8.02 -5 7 C-5.66 7 -6.32 7 -7 7 C-7 6.34 -7 5.68 -7 5 C-5.68 5 -4.36 5 -3 5 C-2.67 4.01 -2.34 3.02 -2 2 C-1.34 2 -0.68 2 0 2 C0 1.34 0 0.68 0 0 Z " fill="#CDA354" transform="translate(72,205)"/>
<path d="M0 0 C0.53625 0.226875 1.0725 0.45375 1.625 0.6875 C0.635 1.3475 -0.355 2.0075 -1.375 2.6875 C-1.6252157 5.77115871 -1.6252157 5.77115871 -1.375 8.6875 C-3.355 9.6775 -3.355 9.6775 -5.375 10.6875 C-6.875 9.5 -6.875 9.5 -8.375 7.6875 C-8.5625 5 -8.5625 5 -8.375 2.6875 C-2.95961538 -0.38942308 -2.95961538 -0.38942308 0 0 Z " fill="#B7944F" transform="translate(234.375,276.3125)"/>
<path d="M0 0 C1.2684375 0.3403125 1.2684375 0.3403125 2.5625 0.6875 C3.325625 0.873125 4.08875 1.05875 4.875 1.25 C5.7103125 1.4665625 5.7103125 1.4665625 6.5625 1.6875 C6.541875 2.595 6.52125 3.5025 6.5 4.4375 C6.5514755 7.11422588 6.7840017 9.15738052 7.5625 11.6875 C6.5725 11.3575 5.5825 11.0275 4.5625 10.6875 C4.5625 9.6975 4.5625 8.7075 4.5625 7.6875 C3.9025 7.6875 3.2425 7.6875 2.5625 7.6875 C2.5625 7.0275 2.5625 6.3675 2.5625 5.6875 C-0.0775 5.0275 -2.7175 4.3675 -5.4375 3.6875 C-5.4375 3.0275 -5.4375 2.3675 -5.4375 1.6875 C-2.4375 -0.3125 -2.4375 -0.3125 0 0 Z " fill="#AD8C52" transform="translate(192.4375,162.3125)"/>
<path d="M0 0 C0.33 0 0.66 0 1 0 C2.12029814 5.48946087 1.79217969 8.83430559 0 14 C0.66 14.33 1.32 14.66 2 15 C0.68 15.33 -0.64 15.66 -2 16 C-2 16.66 -2 17.32 -2 18 C0.97 18 3.94 18 7 18 C7 18.33 7 18.66 7 19 C3.04 19 -0.92 19 -5 19 C-4.54625 17.35 -4.0925 15.7 -3.625 14 C-2.35488506 9.34692487 -1.14898402 4.68431947 0 0 Z " fill="#8B7245" transform="translate(417,244)"/>
<path d="M0 0 C0.66 0 1.32 0 2 0 C2 1.65 2 3.3 2 5 C2.66 5 3.32 5 4 5 C6 7 6 7 6 11 C3.03 11 0.06 11 -3 11 C-3 9 -3 9 -1 7 C-0.95919217 5.00041636 -0.95745644 2.99954746 -1 1 C-0.67 0.67 -0.34 0.34 0 0 Z " fill="#D1A95D" transform="translate(418,251)"/>
<path d="M0 0 C0.66 2.97 1.32 5.94 2 9 C7.1693489 8.59443869 7.1693489 8.59443869 12 7 C12 8.32 12 9.64 12 11 C8.37 11 4.74 11 1 11 C0.05598958 8.98177083 -0.88802083 6.96354167 -1.83203125 4.9453125 C-2.99467097 2.69457194 -2.99467097 2.69457194 -6 1 C-4 0 -4 0 0 0 Z " fill="#8E794A" transform="translate(294,286)"/>
<path d="M0 0 C0.6875 1.625 0.6875 1.625 1 4 C-0.4375 7.25 -0.4375 7.25 -2 10 C-2.66 9.67 -3.32 9.34 -4 9 C-4 7.35 -4 5.7 -4 4 C-4.99 4 -5.98 4 -7 4 C-7 3.34 -7 2.68 -7 2 C-7.66 1.67 -8.32 1.34 -9 1 C-5.57367167 -0.61798838 -3.61944899 -1.34053666 0 0 Z " fill="#C8A14F" transform="translate(395,280)"/>
<path d="M0 0 C1.65 0 3.3 0 5 0 C5.144375 0.763125 5.28875 1.52625 5.4375 2.3125 C5.9632594 5.08172908 5.9632594 5.08172908 7 8 C6.67 8.66 6.34 9.32 6 10 C5.34 10 4.68 10 4 10 C4 9.34 4 8.68 4 8 C3.401875 7.9175 2.80375 7.835 2.1875 7.75 C-0.5966296 6.79544128 -1.43311142 5.42867729 -3 3 C-2.67 2.34 -2.34 1.68 -2 1 C-1.34 1.33 -0.68 1.66 0 2 C0 1.34 0 0.68 0 0 Z " fill="#AE8E4C" transform="translate(225,298)"/>
<path d="M0 0 C0.886875 0.78375 1.77375 1.5675 2.6875 2.375 C4.81501144 4.17985568 6.12815265 5.04556539 8.8125 6 C11 7 11 7 12 9.4375 C12 12 12 12 10.5625 13.8125 C10.046875 14.204375 9.53125 14.59625 9 15 C7.4375 13.1875 7.4375 13.1875 6 11 C6.33 10.01 6.66 9.02 7 8 C4.525 7.01 4.525 7.01 2 6 C2 5.34 2 4.68 2 4 C1.34 4 0.68 4 0 4 C0 2.68 0 1.36 0 0 Z " fill="#C89D50" transform="translate(142,156)"/>
<path d="M0 0 C4.81981838 4.1312729 7.7847751 9.03999014 10 15 C9.67 15.66 9.34 16.32 9 17 C8.01 16.67 7.02 16.34 6 16 C6 14.68 6 13.36 6 12 C5.01 11.67 4.02 11.34 3 11 C3 9.68 3 8.36 3 7 C2.01 6.67 1.02 6.34 0 6 C0 4.02 0 2.04 0 0 Z " fill="#A48A52" transform="translate(198,144)"/>
<path d="M0 0 C1.98 0 3.96 0 6 0 C6 1.65 6 3.3 6 5 C5.34 5 4.68 5 4 5 C4 5.66 4 6.32 4 7 C2.1858073 6.71905418 0.37364999 6.42493567 -1.4375 6.125 C-2.95150391 5.88136719 -2.95150391 5.88136719 -4.49609375 5.6328125 C-5.32238281 5.42398438 -6.14867188 5.21515625 -7 5 C-7.33 4.34 -7.66 3.68 -8 3 C-5.36 3 -2.72 3 0 3 C0 2.01 0 1.02 0 0 Z " fill="#D0A556" transform="translate(128,193)"/>
<path d="M0 0 C3.63 0 7.26 0 11 0 C11 1.98 11 3.96 11 6 C10.01 6.33 9.02 6.66 8 7 C7.01 5.68 6.02 4.36 5 3 C3.35 3.33 1.7 3.66 0 4 C0 2.68 0 1.36 0 0 Z " fill="#B09357" transform="translate(295,316)"/>
<path d="M0 0 C0.28875 0.639375 0.5775 1.27875 0.875 1.9375 C1.82823451 4.15206079 1.82823451 4.15206079 4 5 C4 5.99 4 6.98 4 8 C1.03 8 -1.94 8 -5 8 C-5 5 -5 5 -4 2 C-1.9375 0.8125 -1.9375 0.8125 0 0 Z " fill="#CA9F56" transform="translate(391,305)"/>
<path d="M0 0 C0.33 0 0.66 0 1 0 C1 2.31 1 4.62 1 7 C3.97 7 6.94 7 10 7 C9.67 5.35 9.34 3.7 9 2 C11 4 11 4 11 8 C6.545 8.495 6.545 8.495 2 9 C1.67 10.32 1.34 11.64 1 13 C-0.32 12.67 -1.64 12.34 -3 12 C-2.649375 11.21625 -2.29875 10.4325 -1.9375 9.625 C-1.628125 8.75875 -1.31875 7.8925 -1 7 C-1.33 6.34 -1.66 5.68 -2 5 C-1.0625 2.375 -1.0625 2.375 0 0 Z " fill="#D2A961" transform="translate(428,237)"/>
<path d="M0 0 C-0.66 1.65 -1.32 3.3 -2 5 C-2.66 5 -3.32 5 -4 5 C-4.19658808 6.41543415 -4.38187546 7.83244031 -4.5625 9.25 C-4.66691406 10.03890625 -4.77132812 10.8278125 -4.87890625 11.640625 C-5.00027349 14.00532874 -4.69633257 15.7511037 -4 18 C-4.99 17.67 -5.98 17.34 -7 17 C-7.08133791 15.08404032 -7.13934367 13.16708068 -7.1875 11.25 C-7.22230469 10.18265625 -7.25710937 9.1153125 -7.29296875 8.015625 C-6.9675287 4.66576205 -6.308418 3.39225885 -4 1 C-2 0 -2 0 0 0 Z " fill="#9A824F" transform="translate(146,137)"/>
<path d="M0 0 C0.77601563 0.07605469 1.55203125 0.15210938 2.3515625 0.23046875 C4.375 0.8125 4.375 0.8125 6.375 3.8125 C6.045 4.8025 5.715 5.7925 5.375 6.8125 C5.00375 6.338125 4.6325 5.86375 4.25 5.375 C1.61877523 3.18231269 -0.21896299 2.94607008 -3.625 2.8125 C-6.94305142 4.13679273 -6.94305142 4.13679273 -9.625 5.8125 C-9.375 3.9375 -9.375 3.9375 -8.625 1.8125 C-5.62524519 -0.14067369 -3.51878548 -0.40601371 0 0 Z " fill="#8C7446" transform="translate(336.625,285.1875)"/>
<path d="M0 0 C-0.47563411 4.28070699 -2.80311533 6.3004085 -6 9 C-10.75008353 11.21670565 -14.8636163 11.17711668 -20 11 C-20 10.67 -20 10.34 -20 10 C-18.989375 9.9175 -17.97875 9.835 -16.9375 9.75 C-12.62166584 9.16227462 -9.69149778 7.24385159 -6 5 C-5.34 5 -4.68 5 -4 5 C-4 3.68 -4 2.36 -4 1 C-2 0 -2 0 0 0 Z " fill="#7B6941" transform="translate(256,253)"/>
<path d="M0 0 C0.33 0 0.66 0 1 0 C1.68800428 12.88096904 1.68800428 12.88096904 -0.6875 16.6875 C-3.06513929 19.06513929 -4.7805178 20.10569939 -8 21 C-7.505 19.515 -7.505 19.515 -7 18 C-6.01 18 -5.02 18 -4 18 C-4 16.35 -4 14.7 -4 13 C-3.34 12.67 -2.68 12.34 -2 12 C-1.30772968 9.19019327 -1.30772968 9.19019327 -0.875 5.9375 C-0.70742188 4.83277344 -0.53984375 3.72804688 -0.3671875 2.58984375 C-0.24601562 1.73519531 -0.12484375 0.88054687 0 0 Z " fill="#88703D" transform="translate(257,313)"/>
<path d="M0 0 C0.33 0 0.66 0 1 0 C1.50512244 1.60256108 2.00391627 3.20711792 2.5 4.8125 C2.7784375 5.70582031 3.056875 6.59914063 3.34375 7.51953125 C4 10 4 10 4 13 C2.02 13.99 2.02 13.99 0 15 C-1.25664978 12.09399739 -2 10.20395416 -2 7 C-1.34 7 -0.68 7 0 7 C0 4.69 0 2.38 0 0 Z " fill="#CDA55B" transform="translate(231,290)"/>
<path d="M0 0 C2.375 -0.125 2.375 -0.125 5 0 C7 2 7 2 7.125 4.625 C7.08375 5.40875 7.0425 6.1925 7 7 C6.67 6.34 6.34 5.68 6 5 C4.35 5 2.7 5 1 5 C0.67 5.66 0.34 6.32 0 7 C-0.99 6.67 -1.98 6.34 -3 6 C-2 4 -1 2 0 0 Z " fill="#D1A356" transform="translate(386,234)"/>
<path d="M0 0 C0.33 0 0.66 0 1 0 C1.33 2.31 1.66 4.62 2 7 C2.66 7 3.32 7 4 7 C4.33 8.32 4.66 9.64 5 11 C4.34 11 3.68 11 3 11 C3 11.66 3 12.32 3 13 C2.01 12.67 1.02 12.34 0 12 C-1.1898306 9.6203388 -1.13349966 8.08514265 -1.125 5.4375 C-1.12886719 4.22900391 -1.12886719 4.22900391 -1.1328125 2.99609375 C-1 1 -1 1 0 0 Z " fill="#BE9B5E" transform="translate(222,287)"/>
<path d="M0 0 C0 1.32 0 2.64 0 4 C0.99 4.33 1.98 4.66 3 5 C0.11788698 5.96070434 -1.69850044 6.10581883 -4.6875 6.0625 C-5.89986328 6.04896484 -5.89986328 6.04896484 -7.13671875 6.03515625 C-8.05904297 6.01775391 -8.05904297 6.01775391 -9 6 C-8.67 4.68 -8.34 3.36 -8 2 C-6.68 2.66 -5.36 3.32 -4 4 C-4 3.01 -4 2.02 -4 1 C-2 0 -2 0 0 0 Z " fill="#B89A5B" transform="translate(255,288)"/>
<path d="M0 0 C4.53829228 0.53391674 7.4179638 2.19666732 11 5 C12.875 7.75 12.875 7.75 14 10 C13.01 10.495 13.01 10.495 12 11 C11.443125 10.21625 10.88625 9.4325 10.3125 8.625 C7.88170651 5.8657209 6.34464112 5.26553988 3 4 C2.67 3.01 2.34 2.02 2 1 C1.34 0.67 0.68 0.34 0 0 Z " fill="#997F4D" transform="translate(290,276)"/>
<path d="M0 0 C0.99 0 1.98 0 3 0 C2.02711911 2.65331153 1.41047261 3.78269097 -1.125 5.125 C-4.63859416 6.19435474 -7.6456645 6.19353898 -11.3125 6.125 C-12.56675781 6.10695313 -13.82101562 6.08890625 -15.11328125 6.0703125 C-16.06589844 6.04710937 -17.01851563 6.02390625 -18 6 C-18 5.67 -18 5.34 -18 5 C-14.7 4.67 -11.4 4.34 -8 4 C-8 3.67 -8 3.34 -8 3 C-5.36 2.67 -2.72 2.34 0 2 C0 1.34 0 0.68 0 0 Z " fill="#7A6336" transform="translate(346,330)"/>
<path d="M0 0 C0.66 1.32 1.32 2.64 2 4 C2.66 4 3.32 4 4 4 C4.33 4.99 4.66 5.98 5 7 C4.34 7 3.68 7 3 7 C3 7.66 3 8.32 3 9 C2.01 9 1.02 9 0 9 C0 8.34 0 7.68 0 7 C-0.66 7 -1.32 7 -2 7 C-2.33 5.68 -2.66 4.36 -3 3 C-2.34 3 -1.68 3 -1 3 C-0.67 2.01 -0.34 1.02 0 0 Z " fill="#D0A758" transform="translate(199,155)"/>
<path d="M0 0 C0.99 0.66 1.98 1.32 3 2 C3 4 3 6 3 8 C2.01 8.33 1.02 8.66 0 9 C-0.33 8.34 -0.66 7.68 -1 7 C-1.99 7.495 -1.99 7.495 -3 8 C-3.33 5.69 -3.66 3.38 -4 1 C-2.68 1.33 -1.36 1.66 0 2 C0 1.34 0 0.68 0 0 Z " fill="#B59149" transform="translate(439,234)"/>
<path d="M0 0 C2.0625 0.4375 2.0625 0.4375 4 1 C4 1.99 4 2.98 4 4 C4.66 4 5.32 4 6 4 C6.33 5.65 6.66 7.3 7 9 C5.68 9.99 4.36 10.98 3 12 C3.875 7.25 3.875 7.25 5 5 C3.02 5.33 1.04 5.66 -1 6 C-1.042721 4.33388095 -1.04063832 2.66617115 -1 1 C-0.67 0.67 -0.34 0.34 0 0 Z " fill="#CFA75E" transform="translate(137,213)"/>
<path d="M0 0 C-0.66 1.32 -1.32 2.64 -2 4 C-2.99 4 -3.98 4 -5 4 C-5 4.66 -5 5.32 -5 6 C-5.99 6.33 -6.98 6.66 -8 7 C-8.66 6.34 -9.32 5.68 -10 5 C-9 2 -9 2 -6.6875 0.8125 C-4 0 -4 0 0 0 Z " fill="#CEA35A" transform="translate(338,276)"/>
<path d="M0 0 C0.66 0.66 1.32 1.32 2 2 C1.05125 1.979375 0.1025 1.95875 -0.875 1.9375 C-3.90666283 1.77448174 -3.90666283 1.77448174 -6 3 C-6 3.99 -6 4.98 -6 6 C-8 7.6875 -8 7.6875 -10 9 C-10.33 6.69 -10.66 4.38 -11 2 C-6.93150591 -0.71232939 -4.83523216 -0.30699887 0 0 Z " fill="#CFA862" transform="translate(243,276)"/>
<path d="M0 0 C4.4571874 0.26218749 6.51522698 0.57711289 9.9375 3.5625 C10.618125 4.366875 11.29875 5.17125 12 6 C11.67 6.99 11.34 7.98 11 9 C9.16136495 7.88368586 7.32920277 6.75670373 5.5 5.625 C4.4790625 4.99851562 3.458125 4.37203125 2.40625 3.7265625 C1.6121875 3.15679687 0.818125 2.58703125 0 2 C0 1.34 0 0.68 0 0 Z " fill="#A08751" transform="translate(176,266)"/>
<path d="M0 0 C0.99 0.33 1.98 0.66 3 1 C3 2.32 3 3.64 3 5 C0.64561267 6.42944945 -0.48032433 7.08661261 -3.25 6.625 C-3.8275 6.41875 -4.405 6.2125 -5 6 C-4.34 4.35 -3.68 2.7 -3 1 C-2.01 1.33 -1.02 1.66 0 2 C0 1.34 0 0.68 0 0 Z " fill="#CCA352" transform="translate(228,240)"/>
<path d="M0 0 C0.66 0 1.32 0 2 0 C2 1.32 2 2.64 2 4 C2.99 4.33 3.98 4.66 5 5 C5 5.99 5 6.98 5 8 C2.69 8.66 0.38 9.32 -2 10 C-2 9.01 -2 8.02 -2 7 C-1.34 7 -0.68 7 0 7 C0 4.69 0 2.38 0 0 Z " fill="#B08F51" transform="translate(160,175)"/>
<path d="M0 0 C0 0.66 0 1.32 0 2 C-0.99 1.95875 -1.98 1.9175 -3 1.875 C-7.23835866 1.8576652 -10.93193985 2.85808838 -15 4 C-15 3.01 -15 2.02 -15 1 C-9.42567486 -0.66251802 -5.6932495 -1.18609365 0 0 Z " fill="#957E49" transform="translate(130,164)"/>
<path d="M0 0 C0.66 0 1.32 0 2 0 C2.185625 0.78375 2.37125 1.5675 2.5625 2.375 C3.83961627 5.39376342 3.83961627 5.39376342 7.625 6.3125 C8.73875 6.539375 9.8525 6.76625 11 7 C11 7.33 11 7.66 11 8 C2.42857143 8.28571429 2.42857143 8.28571429 -1 6 C-1.042721 4.33388095 -1.04063832 2.66617115 -1 1 C-0.67 0.67 -0.34 0.34 0 0 Z " fill="#A78C4F" transform="translate(231,246)"/>
<path d="M0 0 C0.66 1.32 1.32 2.64 2 4 C1.34 4 0.68 4 0 4 C0 4.66 0 5.32 0 6 C0.66 6 1.32 6 2 6 C2 7.32 2 8.64 2 10 C-0.64 10 -3.28 10 -6 10 C-5.34 9.67 -4.68 9.34 -4 9 C-4 8.34 -4 7.68 -4 7 C-3.34 7 -2.68 7 -2 7 C-1.34 4.69 -0.68 2.38 0 0 Z " fill="#9D8346" transform="translate(168,212)"/>
<path d="M0 0 C-0.639375 0.433125 -1.27875 0.86625 -1.9375 1.3125 C-4.26746003 2.91239177 -4.26746003 2.91239177 -5 6 C-7.0625 6.6875 -7.0625 6.6875 -9 7 C-9 4.69 -9 2.38 -9 0 C-5.93109813 -1.53445094 -3.29905734 -0.54984289 0 0 Z " fill="#D1A75C" transform="translate(84,203)"/>
<path d="M0 0 C0.598125 0.165 1.19625 0.33 1.8125 0.5 C4.11344336 1.1114124 4.11344336 1.1114124 7 1 C6.67 2.65 6.34 4.3 6 6 C3.69 5.67 1.38 5.34 -1 5 C-0.67 3.35 -0.34 1.7 0 0 Z " fill="#CCA159" transform="translate(236,305)"/>
<path d="M0 0 C0 3.74161103 -0.51338171 7.28953557 -1 11 C-1.99 10.67 -2.98 10.34 -4 10 C-3.67 8.68 -3.34 7.36 -3 6 C-3.66 6 -4.32 6 -5 6 C-5 5.01 -5 4.02 -5 3 C-4.34 3 -3.68 3 -3 3 C-3 2.34 -3 1.68 -3 1 C-2.01 0.67 -1.02 0.34 0 0 Z " fill="#CEA358" transform="translate(321,284)"/>
<path d="M0 0 C0.66 0.33 1.32 0.66 2 1 C1.67 2.65 1.34 4.3 1 6 C-3.75 7.125 -3.75 7.125 -6 6 C-6 6.66 -6 7.32 -6 8 C-6.66 7.67 -7.32 7.34 -8 7 C-7 5 -7 5 -4.5625 4.0625 C-1.70136041 3.15452711 -1.70136041 3.15452711 0 0 Z " fill="#C69F4F" transform="translate(296,321)"/>
<path d="M0 0 C0.99 0.33 1.98 0.66 3 1 C3.6875 3.0625 3.6875 3.0625 4 5 C3.34 5 2.68 5 2 5 C1.67 5.66 1.34 6.32 1 7 C0.67 7.66 0.34 8.32 0 9 C-1.9375 8.625 -1.9375 8.625 -4 8 C-4.33 7.34 -4.66 6.68 -5 6 C-4.34 6 -3.68 6 -3 6 C-3 5.34 -3 4.68 -3 4 C-1.68 3.67 -0.36 3.34 1 3 C0.67 2.01 0.34 1.02 0 0 Z " fill="#AC8A45" transform="translate(277,325)"/>
<path d="M0 0 C1.98 0 3.96 0 6 0 C6 1.32 6 2.64 6 4 C1.38 4 -3.24 4 -8 4 C-8 3.67 -8 3.34 -8 3 C-6.865625 2.87625 -5.73125 2.7525 -4.5625 2.625 C-3.386875 2.41875 -2.21125 2.2125 -1 2 C-0.67 1.34 -0.34 0.68 0 0 Z " fill="#9B7941" transform="translate(385,284)"/>
<path d="M0 0 C0.33 0.99 0.66 1.98 1 3 C-1 5 -1 5 -4.0390625 5.1953125 C-5.22242188 5.17210937 -6.40578125 5.14890625 -7.625 5.125 C-8.81351562 5.10695313 -10.00203125 5.08890625 -11.2265625 5.0703125 C-12.14179688 5.04710937 -13.05703125 5.02390625 -14 5 C-14 4.67 -14 4.34 -14 4 C-11.03 4 -8.06 4 -5 4 C-5.33 3.01 -5.66 2.02 -6 1 C-4 0 -4 0 0 0 Z " fill="#C5A45A" transform="translate(342,330)"/>
<path d="M0 0 C3.96 1.98 7.92 3.96 12 6 C8.52674819 7.1577506 5.63932552 7.06866652 2 7 C1.34 4.69 0.68 2.38 0 0 Z " fill="#9E8249" transform="translate(233,295)"/>
<path d="M0 0 C0.66 0.33 1.32 0.66 2 1 C2.99 1.33 3.98 1.66 5 2 C5 3.32 5 4.64 5 6 C3.35 6.66 1.7 7.32 0 8 C0 7.34 0 6.68 0 6 C-0.66 6 -1.32 6 -2 6 C-1.34 4.02 -0.68 2.04 0 0 Z " fill="#CDA45C" transform="translate(276,278)"/>
<path d="M0 0 C3.63 0 7.26 0 11 0 C10.67 1.98 10.34 3.96 10 6 C9.34 6 8.68 6 8 6 C7.67 5.01 7.34 4.02 7 3 C7.66 3 8.32 3 9 3 C9 2.34 9 1.68 9 1 C6.69 1 4.38 1 2 1 C2 1.66 2 2.32 2 3 C1.34 3 0.68 3 0 3 C-0.33 3.66 -0.66 4.32 -1 5 C-0.67 3.35 -0.34 1.7 0 0 Z " fill="#A08A57" transform="translate(247,246)"/>
<path d="M0 0 C1.875 0.25 1.875 0.25 4 1 C5.87380446 3.49840595 6.05001932 4.63319166 5.625 7.75 C5.41875 8.4925 5.2125 9.235 5 10 C2.35534962 6.8745041 1.15585285 3.91211733 0 0 Z " fill="#A5884F" transform="translate(301,246)"/>
<path d="M0 0 C1.0625 1.8125 1.0625 1.8125 2 4 C1.67 4.99 1.34 5.98 1 7 C1.66 7 2.32 7 3 7 C3.33 8.32 3.66 9.64 4 11 C0.25 12.125 0.25 12.125 -2 11 C-2 10.34 -2 9.68 -2 9 C-1.34 9 -0.68 9 0 9 C-0.185625 8.443125 -0.37125 7.88625 -0.5625 7.3125 C-1.07551165 4.600867 -0.6640724 2.65628961 0 0 Z " fill="#D1AD64" transform="translate(170,207)"/>
<path d="M0 0 C1.72945653 0.14235457 3.45855654 0.28904382 5.1875 0.4375 C6.63189453 0.55931641 6.63189453 0.55931641 8.10546875 0.68359375 C10.78649602 0.97666151 13.3662986 1.42703754 16 2 C13 4 13 4 10.625 3.828125 C9.325625 3.54195312 9.325625 3.54195312 8 3.25 C7.13375 3.06953125 6.2675 2.8890625 5.375 2.703125 C3 2 3 2 0 0 Z " fill="#A68B52" transform="translate(132,229)"/>
<path d="M0 0 C1.98 0.495 1.98 0.495 4 1 C4 2.98 4 4.96 4 7 C2.02 7.99 2.02 7.99 0 9 C-1.125 3.375 -1.125 3.375 0 0 Z " fill="#CEA458" transform="translate(426,216)"/>
<path d="M0 0 C6.625 -0.25 6.625 -0.25 10 2 C10.1875 4.625 10.1875 4.625 10 7 C9.67 5.68 9.34 4.36 9 3 C8.01 3.33 7.02 3.66 6 4 C6 3.34 6 2.68 6 2 C4.68 2 3.36 2 2 2 C1.67 2.99 1.34 3.98 1 5 C0.67 3.35 0.34 1.7 0 0 Z " fill="#B19055" transform="translate(220,317)"/>
<path d="M0 0 C0.99 0 1.98 0 3 0 C3 0.66 3 1.32 3 2 C4.56418154 3.28463521 4.56418154 3.28463521 6.5 4.5 C8.46875 5.78125 8.46875 5.78125 10 7 C10 7.66 10 8.32 10 9 C5.25 7.125 5.25 7.125 3 6 C3 5.34 3 4.68 3 4 C2.34 4 1.68 4 1 4 C0.67 2.68 0.34 1.36 0 0 Z " fill="#947D4D" transform="translate(64,291)"/>
<path d="M0 0 C2 3 2 3 2 7 C-0.31 7 -2.62 7 -5 7 C-4.34 6.67 -3.68 6.34 -3 6 C-2.34786708 3.97536745 -2.34786708 3.97536745 -2 2 C-1.34 2 -0.68 2 0 2 C0 1.34 0 0.68 0 0 Z " fill="#B08D4B" transform="translate(450,251)"/>
<path d="M0 0 C1.43088528 2.86177057 0.59991697 4.93375773 0 8 C-2.475 7.01 -2.475 7.01 -5 6 C-4.75 4.125 -4.75 4.125 -4 2 C-1.9375 0.75 -1.9375 0.75 0 0 Z " fill="#CDA45B" transform="translate(191,239)"/>
<path d="M0 0 C1.65 0 3.3 0 5 0 C6.2077558 3.62326739 5.54311128 4.64146369 4 8 C3.67 8 3.34 8 3 8 C3 6.35 3 4.7 3 3 C1.68 3.33 0.36 3.66 -1 4 C-0.67 2.68 -0.34 1.36 0 0 Z " fill="#B7914F" transform="translate(387,239)"/>
<path d="M0 0 C1.62227653 3.24455307 0.96014095 6.70301654 0.83984375 10.2734375 C1.00402742 13.0685644 1.56683692 14.6282556 3 17 C2.01 17 1.02 17 0 17 C0 16.34 0 15.68 0 15 C-0.66 15 -1.32 15 -2 15 C-1.85973717 12.68715544 -1.71264442 10.37472409 -1.5625 8.0625 C-1.48128906 6.77472656 -1.40007812 5.48695313 -1.31640625 4.16015625 C-1 1 -1 1 0 0 Z " fill="#746038" transform="translate(111,172)"/>
<path d="M0 0 C2.09219926 2.78959901 3.57568513 4.93224489 5 8 C2.69 8.66 0.38 9.32 -2 10 C-1.34 6.7 -0.68 3.4 0 0 Z " fill="#AF8D4E" transform="translate(138,177)"/>
<path d="M0 0 C0.66 0.33 1.32 0.66 2 1 C2.95067299 4.28414305 3.10102197 5.69693408 2 9 C1.34 7.68 0.68 6.36 0 5 C-1.65 5 -3.3 5 -5 5 C-3.35 3.35 -1.7 1.7 0 0 Z " fill="#CFAB64" transform="translate(165,159)"/>
<path d="M0 0 C0.66 0 1.32 0 2 0 C1.52695318 4.25742137 -0.8863822 6.25705098 -4 9 C-4.99 9.33 -5.98 9.66 -7 10 C-6.67 9.01 -6.34 8.02 -6 7 C-5.34 7 -4.68 7 -4 7 C-4 6.34 -4 5.68 -4 5 C-4.66 4.67 -5.32 4.34 -6 4 C-4.35 3.67 -2.7 3.34 -1 3 C-0.67 2.01 -0.34 1.02 0 0 Z " fill="#BA974D" transform="translate(244,251)"/>
<path d="M0 0 C-0.33 1.65 -0.66 3.3 -1 5 C-1.99 5.33 -2.98 5.66 -4 6 C-4.33 5.34 -4.66 4.68 -5 4 C-5.66 4.66 -6.32 5.32 -7 6 C-7 4.35 -7 2.7 -7 1 C-4.53721199 -0.231394 -2.7204945 -0.07159196 0 0 Z " fill="#BB974D" transform="translate(298,229)"/>
<path d="M0 0 C2.50155273 1.25077637 2.92212548 2.35027305 4.1875 4.8125 C4.55230469 5.49957031 4.91710937 6.18664062 5.29296875 6.89453125 C6.12087895 9.35996549 5.85276722 10.58292094 5 13 C1.55834073 8.77614544 0 5.49939416 0 0 Z " fill="#997F4B" transform="translate(295,215)"/>
<path d="M0 0 C0.66 0 1.32 0 2 0 C1.71812064 1.79323253 1.4241719 3.58457126 1.125 5.375 C0.96257812 6.37273437 0.80015625 7.37046875 0.6328125 8.3984375 C0 11 0 11 -2 13 C-1.85966889 11.02043559 -1.7125877 9.04134859 -1.5625 7.0625 C-1.48128906 5.96035156 -1.40007812 4.85820312 -1.31640625 3.72265625 C-1 1 -1 1 0 0 Z " fill="#9C814F" transform="translate(208,188)"/>
<path d="M0 0 C0.33 0 0.66 0 1 0 C1.02705729 1.77074917 1.04642195 3.54161711 1.0625 5.3125 C1.07410156 6.29863281 1.08570313 7.28476563 1.09765625 8.30078125 C1 11 1 11 0 14 C-1.32 13.34 -2.64 12.68 -4 12 C-3.525625 11.319375 -3.05125 10.63875 -2.5625 9.9375 C-0.7774364 6.58158044 -0.36846914 3.75838519 0 0 Z " fill="#9D8451" transform="translate(169,146)"/>
<path d="M0 0 C0.66 0 1.32 0 2 0 C1.67 1.32 1.34 2.64 1 4 C2.65 4 4.3 4 6 4 C6 4.66 6 5.32 6 6 C3.36 6 0.72 6 -2 6 C-2 4.68 -2 3.36 -2 2 C-1.34 2 -0.68 2 0 2 C0 1.34 0 0.68 0 0 Z " fill="#D0AA5F" transform="translate(188,136)"/>
<path d="M0 0 C3.875 1.75 3.875 1.75 5 4 C6.64363134 4.72159424 8.31050386 5.39351421 10 6 C10 6.66 10 7.32 10 8 C5.60316512 6.80086322 2.90159066 5.5711885 0 2 C0 1.34 0 0.68 0 0 Z " fill="#A08558" transform="translate(318,327)"/>
<path d="M0 0 C0.99 0.33 1.98 0.66 3 1 C2.3125 3.375 2.3125 3.375 1 6 C-1.625 7.3125 -1.625 7.3125 -4 8 C-4 6.68 -4 5.36 -4 4 C-2.02 4.495 -2.02 4.495 0 5 C0 3.35 0 1.7 0 0 Z " fill="#947B43" transform="translate(300,326)"/>
<path d="M0 0 C1.4783226 2.95664519 1.06032783 5.74229737 1 9 C-0.33333333 7 -1.66666667 5 -3 3 C-3.99 2.34 -4.98 1.68 -6 1 C-4 0 -4 0 0 0 Z " fill="#9F8149" transform="translate(294,286)"/>
<path d="M0 0 C0.33 0 0.66 0 1 0 C1.33 2.64 1.66 5.28 2 8 C2.99 8 3.98 8 5 8 C4.67 9.32 4.34 10.64 4 12 C3.34 12 2.68 12 2 12 C1.4654744 10.75579353 0.94791389 9.50429064 0.4375 8.25 C0.14746094 7.55390625 -0.14257812 6.8578125 -0.44140625 6.140625 C-1.07831803 3.69987216 -0.80248831 2.3596345 0 0 Z " fill="#9A804E" transform="translate(223,246)"/>
<path d="M0 0 C0.66 0 1.32 0 2 0 C2 1.65 2 3.3 2 5 C2.66 5 3.32 5 4 5 C4 5.66 4 6.32 4 7 C2.35 7 0.7 7 -1 7 C-1.04254356 5.00045254 -1.04080783 2.99958364 -1 1 C-0.67 0.67 -0.34 0.34 0 0 Z " fill="#CAA34D" transform="translate(418,251)"/>
<path d="M0 0 C0.66 0 1.32 0 2 0 C2.69965443 1.26418246 3.38434763 2.53665402 4.0625 3.8125 C4.63677734 4.87404297 4.63677734 4.87404297 5.22265625 5.95703125 C6 8 6 8 5 11 C2.03947516 7.63576723 1.07710178 4.30840713 0 0 Z " fill="#907748" transform="translate(375,240)"/>
<path d="M0 0 C0.33 1.98 0.66 3.96 1 6 C-0.32 6.33 -1.64 6.66 -3 7 C-3.66 5.35 -4.32 3.7 -5 2 C-2 0 -2 0 0 0 Z " fill="#CFA75E" transform="translate(445,234)"/>
<path d="M0 0 C0.66 0.99 1.32 1.98 2 3 C-0.64 3.99 -3.28 4.98 -6 6 C-5.67 4.68 -5.34 3.36 -5 2 C-2.4375 0.75 -2.4375 0.75 0 0 Z " fill="#B79749" transform="translate(278,320)"/>
<path d="M0 0 C3.82946843 1.45255699 5.12050295 3.42895561 7 7 C6.01 7.495 6.01 7.495 5 8 C5 7.34 5 6.68 5 6 C3.35 6 1.7 6 0 6 C0.66 5.67 1.32 5.34 2 5 C1.34 3.35 0.68 1.7 0 0 Z " fill="#A1834D" transform="translate(394,279)"/>
<path d="M0 0 C-4.75 4 -4.75 4 -7 4 C-7 3.34 -7 2.68 -7 2 C-7.66 1.67 -8.32 1.34 -9 1 C-5.57367167 -0.61798838 -3.61944899 -1.34053666 0 0 Z " fill="#CEA35A" transform="translate(395,280)"/>
<path d="M0 0 C2.00720923 0.28674418 4.0085944 0.61866701 6 1 C6 1.66 6 2.32 6 3 C2.91190305 4.76462683 1.76687864 5 -2 5 C-1.125 1.125 -1.125 1.125 0 0 Z " fill="#B3924F" transform="translate(183,221)"/>
<path d="M0 0 C0.33 0 0.66 0 1 0 C1.50435694 1.9363704 2.00333874 3.87414146 2.5 5.8125 C2.7784375 6.89144531 3.056875 7.97039062 3.34375 9.08203125 C4 12 4 12 4 15 C3.34 15 2.68 15 2 15 C0.95550089 11.86650268 1.06576355 11.01031744 2 8 C1.34 8 0.68 8 0 8 C0 5.36 0 2.72 0 0 Z " fill="#806C3F" transform="translate(440,214)"/>
<path d="M0 0 C2.32789515 2.83395931 3.07377893 4.29511572 4 8 C0.7 8 -2.6 8 -6 8 C-6 7.67 -6 7.34 -6 7 C-3.69 7 -1.38 7 1 7 C0.67 4.69 0.34 2.38 0 0 Z " fill="#A48B5C" transform="translate(98,205)"/>
<path d="M0 0 C1.32 0.33 2.64 0.66 4 1 C3.67 3.64 3.34 6.28 3 9 C2.67 8.34 2.34 7.68 2 7 C1.34 7 0.68 7 0 7 C0 4.69 0 2.38 0 0 Z " fill="#CEA64E" transform="translate(171,207)"/>
<path d="M0 0 C0.66 0 1.32 0 2 0 C2.66 0.66 3.32 1.32 4 2 C4.99 2.33 5.98 2.66 7 3 C6.34 3 5.68 3 5 3 C5 4.98 5 6.96 5 9 C1.7457985 6.16569547 0.4793247 4.31392226 0 0 Z " fill="#A1844D" transform="translate(103,199)"/>
<path d="M0 0 C0.33 0 0.66 0 1 0 C1 2.31 1 4.62 1 7 C-1.97 7 -4.94 7 -8 7 C-8 6.67 -8 6.34 -8 6 C-5.69 6 -3.38 6 -1 6 C-1.20625 5.38125 -1.4125 4.7625 -1.625 4.125 C-1.74875 3.42375 -1.8725 2.7225 -2 2 C-1.34 1.34 -0.68 0.68 0 0 Z " fill="#D3B170" transform="translate(406,255)"/>
<path d="M0 0 C3 1 3 1 3.94921875 2.84765625 C4.19285156 3.57855469 4.43648438 4.30945313 4.6875 5.0625 C4.93886719 5.79597656 5.19023437 6.52945313 5.44921875 7.28515625 C5.63097656 7.85105469 5.81273437 8.41695312 6 9 C3 8 3 8 1.3125 5.625 C0 3 0 3 0 0 Z " fill="#A38552" transform="translate(300,227)"/>
<path d="M0 0 C0 0.99 0 1.98 0 3 C-0.66 3.66 -1.32 4.32 -2 5 C-2.6425235 7.06874034 -2.6425235 7.06874034 -3 9 C-3.28875 8.360625 -3.5775 7.72125 -3.875 7.0625 C-4.82823451 4.84793921 -4.82823451 4.84793921 -7 4 C-6.030625 3.525625 -5.06125 3.05125 -4.0625 2.5625 C-1.19522563 1.29806053 -1.19522563 1.29806053 0 0 Z " fill="#977B43" transform="translate(164,159)"/>
<path d="M0 0 C-0.6875 2.375 -0.6875 2.375 -2 5 C-4.625 6.3125 -4.625 6.3125 -7 7 C-6.1875 4.0625 -6.1875 4.0625 -5 1 C-2 0 -2 0 0 0 Z " fill="#AE9253" transform="translate(146,137)"/>
<path d="M0 0 C0.99 0.33 1.98 0.66 3 1 C2.34 1 1.68 1 1 1 C0.34 2.65 -0.32 4.3 -1 6 C-2.32 5.34 -3.64 4.68 -5 4 C-3.36587557 2.29159719 -2.13093906 1.06546953 0 0 Z " fill="#A68851" transform="translate(134,127)"/>
<path d="M0 0 C0.66 0.33 1.32 0.66 2 1 C2.75 3.375 2.75 3.375 3 6 C2.01 7.485 2.01 7.485 1 9 C0.87625 8.360625 0.7525 7.72125 0.625 7.0625 C0.315625 6.0415625 0.315625 6.0415625 0 5 C-0.66 4.67 -1.32 4.34 -2 4 C-1.34 2.68 -0.68 1.36 0 0 Z " fill="#C99E52" transform="translate(225,320)"/>
<path d="M0 0 C0.66 0 1.32 0 2 0 C1.25 7.625 1.25 7.625 -1 11 C-1.125 3.375 -1.125 3.375 0 0 Z " fill="#A2874F" transform="translate(419,237)"/>
<path d="M0 0 C2 2 2 2 3 5 C3.66 4.67 4.32 4.34 5 4 C4.67 5.32 4.34 6.64 4 8 C1.00667261 7.0022242 0.05233685 6.2477975 -2 4 C-1 1 -1 1 0 0 Z " fill="#967944" transform="translate(381,231)"/>
<path d="M0 0 C1.0625 1.875 1.0625 1.875 2 4 C1.67 4.66 1.34 5.32 1 6 C0.34 6 -0.32 6 -1 6 C-1.33 6.99 -1.66 7.98 -2 9 C-2.97110486 5.97878489 -3.13617383 3.99536737 -2 1 C-1.34 0.67 -0.68 0.34 0 0 Z " fill="#9E7D45" transform="translate(77,209)"/>
<path d="M0 0 C0 0.99 0 1.98 0 3 C-2.64 3 -5.28 3 -8 3 C-8 2.34 -8 1.68 -8 1 C-5.07175348 0.02391783 -3.04386724 -0.08226668 0 0 Z " fill="#C7A050" transform="translate(451,258)"/>
<path d="M0 0 C1.32 0 2.64 0 4 0 C2.79618552 2.49361571 1.54571278 4.68143083 0 7 C-0.99 6.67 -1.98 6.34 -3 6 C-2 4 -1 2 0 0 Z " fill="#D1AB63" transform="translate(386,234)"/>
<path d="M0 0 C-0.33 1.98 -0.66 3.96 -1 6 C-1.99 5.67 -2.98 5.34 -4 5 C-4.6875 2.9375 -4.6875 2.9375 -5 1 C-3 0 -3 0 0 0 Z " fill="#B79454" transform="translate(378,234)"/>
<path d="M0 0 C1 3 1 3 0.3125 5.125 C-1 7 -1 7 -3 7.875 C-3.99 7.936875 -3.99 7.936875 -5 8 C-5.66 7.34 -6.32 6.68 -7 6 C-6.21625 5.566875 -5.4325 5.13375 -4.625 4.6875 C-1.78301625 3.10779753 -1.78301625 3.10779753 0 0 Z " fill="#A1844D" transform="translate(197,186)"/>
<path d="M0 0 C2.19726562 1.85546875 2.19726562 1.85546875 4.39453125 3.7109375 C5.8655046 4.89201099 7.43037794 5.95358529 9 7 C6.69 6.67 4.38 6.34 2 6 C2 5.34 2 4.68 2 4 C1.34 4 0.68 4 0 4 C0 2.68 0 1.36 0 0 Z " fill="#7B623B" transform="translate(142,156)"/>
<path d="M0 0 C1.32 0.33 2.64 0.66 4 1 C2.5625 2.5625 2.5625 2.5625 0 4 C-3.05380927 3.96846324 -5.99653222 3.53266629 -9 3 C-9 2.67 -9 2.34 -9 2 C-6.03 2 -3.06 2 0 2 C0 1.34 0 0.68 0 0 Z " fill="#CFAD6E" transform="translate(340,323)"/>
<path d="M0 0 C0.33 0.66 0.66 1.32 1 2 C1.66 2 2.32 2 3 2 C2.67 3.32 2.34 4.64 2 6 C1.34 5.34 0.68 4.68 0 4 C-1.32 4 -2.64 4 -4 4 C-3.67 3.01 -3.34 2.02 -3 1 C-2.01 0.67 -1.02 0.34 0 0 Z " fill="#A88446" transform="translate(302,321)"/>
<path d="M0 0 C0.33 0 0.66 0 1 0 C1.33 3.63 1.66 7.26 2 11 C0.02 11.99 0.02 11.99 -2 13 C-1.34 8.71 -0.68 4.42 0 0 Z " fill="#886D40" transform="translate(391,291)"/>
<path d="M0 0 C2.875 -0.125 2.875 -0.125 6 0 C6.66 0.66 7.32 1.32 8 2 C7.01 2.99 6.02 3.98 5 5 C4.01 4.34 3.02 3.68 2 3 C2 2.34 2 1.68 2 1 C1.34 0.67 0.68 0.34 0 0 Z " fill="#CDAA62" transform="translate(284,276)"/>
<path d="M0 0 C0.33 0.99 0.66 1.98 1 3 C1.99 3 2.98 3 4 3 C4 3.66 4 4.32 4 5 C-0.75 5.125 -0.75 5.125 -3 4 C-2.67 3.01 -2.34 2.02 -2 1 C-1.34 0.67 -0.68 0.34 0 0 Z " fill="#D4A05D" transform="translate(233,253)"/>
<path d="M0 0 C0.33 0 0.66 0 1 0 C0.979375 0.94875 0.95875 1.8975 0.9375 2.875 C0.77448174 5.90666283 0.77448174 5.90666283 2 8 C0.68 7.67 -0.64 7.34 -2 7 C-1.125 1.125 -1.125 1.125 0 0 Z " fill="#CFA560" transform="translate(437,228)"/>
<path d="M0 0 C0.66 0.33 1.32 0.66 2 1 C2 1.66 2 2.32 2 3 C3.65 3.33 5.3 3.66 7 4 C5.68 4.99 4.36 5.98 3 7 C1.35 5.02 -0.3 3.04 -2 1 C-1.34 0.67 -0.68 0.34 0 0 Z " fill="#A3864C" transform="translate(132,165)"/>
<path d="M0 0 C-0.33 0.99 -0.66 1.98 -1 3 C-2.65 3.33 -4.3 3.66 -6 4 C-6.33 3.01 -6.66 2.02 -7 1 C-4.50935112 0.31292445 -2.62113708 0 0 0 Z " fill="#CBA963" transform="translate(144,126)"/>
<path d="M0 0 C1.32 0.33 2.64 0.66 4 1 C3.67 1.66 3.34 2.32 3 3 C2.34 2.67 1.68 2.34 1 2 C1 3.65 1 5.3 1 7 C0.01 6.67 -0.98 6.34 -2 6 C-1.34 4.02 -0.68 2.04 0 0 Z " fill="#CFA35D" transform="translate(299,324)"/>
<path d="M0 0 C1.32 0.66 2.64 1.32 4 2 C3.67 2.99 3.34 3.98 3 5 C2.01 5.33 1.02 5.66 0 6 C-1 3 -1 3 0 0 Z " fill="#BE9852" transform="translate(317,322)"/>
<path d="M0 0 C0.33 0 0.66 0 1 0 C1 1.65 1 3.3 1 5 C1.66 5 2.32 5 3 5 C3 5.66 3 6.32 3 7 C3.99 7.33 4.98 7.66 6 8 C2.25 9.125 2.25 9.125 0 8 C0 5.36 0 2.72 0 0 Z " fill="#887041" transform="translate(231,317)"/>
<path d="M0 0 C1.98 0 3.96 0 6 0 C4.68 2.31 3.36 4.62 2 7 C0 4 0 4 0 0 Z " fill="#997940" transform="translate(220,319)"/>
<path d="M0 0 C0.99 0.33 1.98 0.66 3 1 C3 2.65 3 4.3 3 6 C1.35 6.33 -0.3 6.66 -2 7 C-1.67 6.401875 -1.34 5.80375 -1 5.1875 C0.20787988 2.94613529 0.20787988 2.94613529 0 0 Z " fill="#AC8D47" transform="translate(345,278)"/>
<path d="M0 0 C4.75 0.875 4.75 0.875 7 2 C7 2.99 7 3.98 7 5 C5.0625 4.6875 5.0625 4.6875 3 4 C2.67 3.01 2.34 2.02 2 1 C1.34 0.67 0.68 0.34 0 0 Z " fill="#A28647" transform="translate(290,276)"/>
<path d="M0 0 C1.70884005 1.62339805 3.37446717 3.29319053 5 5 C5 5.66 5 6.32 5 7 C3.35 6.67 1.7 6.34 0 6 C0 4.02 0 2.04 0 0 Z " fill="#9A8146" transform="translate(198,144)"/>
<path d="M0 0 C0.33 0.66 0.66 1.32 1 2 C1.66 2.33 2.32 2.66 3 3 C1.35 3.66 -0.3 4.32 -2 5 C-2 3.68 -2 2.36 -2 1 C-1.34 0.67 -0.68 0.34 0 0 Z " fill="#CAA150" transform="translate(239,277)"/>
<path d="M0 0 C0.33 0.99 0.66 1.98 1 3 C0.34 3 -0.32 3 -1 3 C-1 3.66 -1 4.32 -1 5 C-1.99 4.67 -2.98 4.34 -4 4 C-4.33 3.01 -4.66 2.02 -5 1 C-3.35 0.67 -1.7 0.34 0 0 Z " fill="#B69054" transform="translate(311,256)"/>
<path d="M0 0 C0.66 0.33 1.32 0.66 2 1 C1.67 2.32 1.34 3.64 1 5 C0.34 5 -0.32 5 -1 5 C-1.33 5.66 -1.66 6.32 -2 7 C-2.33 5.02 -2.66 3.04 -3 1 C-2.01 1.495 -2.01 1.495 -1 2 C-0.67 1.34 -0.34 0.68 0 0 Z " fill="#D2AB60" transform="translate(309,238)"/>
<path d="M0 0 C0.99 0.33 1.98 0.66 3 1 C1.6875 3 1.6875 3 0 5 C-0.99 5 -1.98 5 -3 5 C-3.33 4.01 -3.66 3.02 -4 2 C-3.34 1.67 -2.68 1.34 -2 1 C-1.34 1.33 -0.68 1.66 0 2 C0 1.34 0 0.68 0 0 Z " fill="#9A8347" transform="translate(197,212)"/>
<path d="M0 0 C1.98 0 3.96 0 6 0 C5.01 0.33 4.02 0.66 3 1 C3 1.99 3 2.98 3 4 C1.02 4.99 1.02 4.99 -1 6 C-1 5.01 -1 4.02 -1 3 C-0.01 2.34 0.98 1.68 2 1 C1.34 0.67 0.68 0.34 0 0 Z " fill="#D1AC5E" transform="translate(183,194)"/>
<path d="M0 0 C0.33 1.32 0.66 2.64 1 4 C1.66 4 2.32 4 3 4 C3 4.66 3 5.32 3 6 C3.66 6.33 4.32 6.66 5 7 C3.35 7.33 1.7 7.66 0 8 C0 5.36 0 2.72 0 0 Z " fill="#9F8144" transform="translate(100,165)"/>
<path d="M0 0 C2.31 0.33 4.62 0.66 7 1 C7 1.66 7 2.32 7 3 C4.69 2.67 2.38 2.34 0 2 C0 1.34 0 0.68 0 0 Z " fill="#A68E55" transform="translate(123,163)"/>
<path d="M0 0 C0.763125 0.20625 1.52625 0.4125 2.3125 0.625 C-0.74867568 3.24886487 -1.41923127 3.625 -5.6875 3.625 C-5.6875 2.965 -5.6875 2.305 -5.6875 1.625 C-2.6875 -0.375 -2.6875 -0.375 0 0 Z " fill="#B59354" transform="translate(192.6875,162.375)"/>
<path d="M0 0 C0.66 1.32 1.32 2.64 2 4 C1.01 4.33 0.02 4.66 -1 5 C-0.67 6.32 -0.34 7.64 0 9 C-0.99 9.33 -1.98 9.66 -3 10 C-2.05066101 6.64566891 -1.10251165 3.30753495 0 0 Z " fill="#957846" transform="translate(104,155)"/>
<path d="M0 0 C0.66 0.33 1.32 0.66 2 1 C0.515 3.475 0.515 3.475 -1 6 C-2.32 5.67 -3.64 5.34 -5 5 C-3.625 3.5 -3.625 3.5 -2 2 C-1.34 2 -0.68 2 0 2 C0 1.34 0 0.68 0 0 Z " fill="#967C48" transform="translate(121,134)"/>
</svg>
